<svg width="570" height="570" viewBox="0 0 570 570" fill="none" xmlns="http://www.w3.org/2000/svg">
<path opacity="0.102307" fill-rule="evenodd" clip-rule="evenodd" d="M314.542 529.122C289.916 551.295 251.978 549.307 229.805 524.681L40.4316 314.361C18.2585 289.735 20.2467 251.797 44.8724 229.624L255.193 40.2509C279.818 18.0779 317.756 20.0661 339.929 44.6917L529.303 255.012C551.476 279.638 549.488 317.576 524.862 339.749L314.542 529.122Z" fill="#2196F3"/>
<path opacity="0.0535017" fill-rule="evenodd" clip-rule="evenodd" d="M196.694 271.242C181.508 284.916 158.113 283.69 144.44 268.504L53.7608 167.794C40.0874 152.609 41.3135 129.214 56.4993 115.54L157.209 24.8609C172.395 11.1875 195.79 12.4136 209.463 27.5994L300.142 128.309C313.816 143.495 312.59 166.89 297.404 180.563L196.694 271.242Z" fill="#00BCD4"/>
</svg>
