<svg width="570" height="570" fill="none" xmlns="http://www.w3.org/2000/svg"><path opacity=".102" fill-rule="evenodd" clip-rule="evenodd" d="M314.542 529.122c-24.626 22.173-62.564 20.185-84.737-4.441L40.432 314.361c-22.174-24.626-20.185-62.564 4.44-84.737L255.193 40.251c24.625-22.173 62.563-20.185 84.736 4.44l189.374 210.321c22.173 24.626 20.185 62.564-4.441 84.737l-210.32 189.373z" fill="#2196F3"/><path opacity=".054" fill-rule="evenodd" clip-rule="evenodd" d="M196.694 271.242c-15.186 13.674-38.581 12.448-52.254-2.738l-90.68-100.71c-13.673-15.185-12.447-38.58 2.74-52.254l100.709-90.68c15.186-13.672 38.581-12.446 52.254 2.74l90.679 100.709c13.674 15.186 12.448 38.581-2.738 52.254l-100.71 90.679z" fill="#00BCD4"/></svg>