<svg width="17" height="17" fill="none" xmlns="http://www.w3.org/2000/svg"><circle cx="8.117" cy="8.743" r="3.5" fill="#2196F3"/><path fill-rule="evenodd" clip-rule="evenodd" d="M4.995 5.081A4.774 4.774 0 0 1 8.389 3.67c1.282 0 2.487.507 3.394 1.414a4.728 4.728 0 0 1 1.21 2.038h3.603V2.279A1.985 1.985 0 0 0 14.582.265H2.239c-1.136 0-2.1.878-2.1 2.014v4.843h3.646a4.738 4.738 0 0 1 1.21-2.04zm10.23-1.251a.549.549 0 0 1-.55.549H13.03a.549.549 0 0 1-.549-.549V2.184c0-.303.246-.548.549-.548h1.646c.303 0 .548.245.548.548V3.83zM11.783 11.87a4.763 4.763 0 0 1-3.394 1.4 4.76 4.76 0 0 1-3.394-1.398 4.814 4.814 0 0 1-1.406-3.379H.139v6.129c0 1.136.964 2.1 2.1 2.1H14.58c1.137 0 2.015-.964 2.015-2.1V8.493h-3.407a4.807 4.807 0 0 1-1.406 3.376z" fill="#2196F3"/></svg>