<svg width="19" height="19" fill="none" xmlns="http://www.w3.org/2000/svg"><path fill-rule="evenodd" clip-rule="evenodd" d="M16.928.743H1.905c-.82 0-1.538.59-1.538 1.402v15.056c0 .815.718 1.542 1.538 1.542h15.018c.825 0 1.444-.731 1.444-1.542V2.145c.005-.811-.619-1.402-1.44-1.402zM5.947 15.747H3.368V7.73h2.579v8.018zm-1.2-9.237h-.02c-.825 0-1.359-.614-1.359-1.383 0-.783.549-1.383 1.393-1.383.843 0 1.36.595 1.378 1.383 0 .77-.535 1.383-1.393 1.383zm10.624 9.237h-2.579v-4.384c0-1.05-.375-1.768-1.308-1.768-.713 0-1.134.483-1.322.952-.07.17-.09.399-.09.633v4.567H7.495V7.73h2.579v1.116c.375-.534.961-1.303 2.325-1.303 1.693 0 2.973 1.116 2.973 3.521v4.684z" fill="#2196F3"/></svg>