<svg width="49" height="48" fill="none" xmlns="http://www.w3.org/2000/svg"><path d="M24.295 1.623a13.109 13.109 0 0 0-13.108 13.11c0 9.267 13.108 26.96 13.108 26.96s13.109-16.725 13.109-26.96a13.11 13.11 0 0 0-13.109-13.11zm0 20.367a7.258 7.258 0 1 1 0-14.513 7.258 7.258 0 0 1 0 14.512v.001z" fill="#fff"/><path d="M24.295 45.905c-6.138 0-15.27-1.118-15.27-4.2 0-2.134 4.19-3.187 7.704-3.696a.654.654 0 0 1 .187 1.295c-4.796.694-6.582 1.84-6.582 2.401 0 .982 4.927 2.892 13.961 2.892s13.962-1.91 13.962-2.892c0-.523-1.822-1.826-7.453-2.517a.654.654 0 0 1 .16-1.299c3.213.395 8.6 1.414 8.6 3.816 0 3.082-9.13 4.2-15.269 4.2z" fill="#2196F3"/></svg>