<svg width="21" height="17" fill="none" xmlns="http://www.w3.org/2000/svg"><path fill-rule="evenodd" clip-rule="evenodd" d="M20.867 2.639a8.408 8.408 0 0 1-2.356.638c.847-.5 1.5-1.292 1.805-2.234-.792.463-1.67.8-2.606.98a4.13 4.13 0 0 0-2.997-1.28c-2.267 0-4.102 1.808-4.102 4.038 0 .316.034.625.106.92a11.695 11.695 0 0 1-8.46-4.22 3.986 3.986 0 0 0-.555 2.029c0 1.4.73 2.637 1.831 3.362a4.06 4.06 0 0 1-1.865-.504v.05c0 1.958 1.416 3.588 3.293 3.958a4.196 4.196 0 0 1-1.08.142c-.263 0-.522-.025-.772-.075.521 1.604 2.039 2.771 3.836 2.804a8.316 8.316 0 0 1-6.078 1.671 11.612 11.612 0 0 0 6.281 1.825c7.557 0 11.685-6.154 11.685-11.491 0-.175-.004-.35-.013-.521a8.275 8.275 0 0 0 2.047-2.092z" fill="#2196F3"/></svg>