<svg width="1440" height="807" viewBox="0 0 1440 807" fill="none" xmlns="http://www.w3.org/2000/svg">
<path d="M0.200414 792.271L9.53078 788.299L26.0672 806.888L29.0246 806.888L11.6551 787.399L33.1483 778.255C38.8548 783.914 44.4363 789.423 49.7263 794.633L31.857 806.888L35.6891 806.888L51.3508 796.169C55.1829 799.917 58.8901 803.515 62.389 806.888L78.2589 806.888C75.5514 804.264 72.6773 801.491 69.595 798.568L80.8831 789.948L88.8389 798.867L79.6751 806.888L83.0074 806.888L90.2967 800.479L96.0033 806.888L98.9606 806.888L91.9629 799.017L100.918 791.147L120.329 800.966L115.955 806.888L118.746 806.888L136.032 783.389L155.109 788.411C155.109 788.411 155.359 788.486 155.526 788.449L189.265 787.362L192.639 806.85L194.972 806.85L191.598 787.287L213.341 786.575L216.881 798.155L213.008 806.85L215.507 806.85L219.172 798.605C219.256 798.38 219.297 798.155 219.214 797.931L215.507 785.825L226.503 776.494C240.915 785.563 259.576 796.844 276.321 806.85L297.314 806.85C292.066 803.739 286.651 800.516 281.194 797.256L356.129 708.585C356.129 708.585 356.129 708.547 356.17 708.51L356.17 708.435L392.992 651.207L473.55 532.292L562.521 409.704C565.312 407.943 593.095 390.478 600.593 384.969C606.424 380.697 627.917 358.923 638.914 347.68C649.077 344.344 656.866 341.796 661.365 340.334L701.935 396.362C670.404 414.876 642.413 436.875 617.671 462.51C606.716 473.865 593.761 488.894 579.558 506.358C579.433 506.508 579.308 506.62 579.224 506.77C504.123 599.189 394.45 759.254 362.127 806.888L375.706 806.888C382.62 796.731 392.034 782.94 403.239 766.712L427.356 804.564C427.564 804.901 428.023 805.126 428.439 805.089L446.517 803.852C447.058 803.814 447.516 803.44 447.6 802.915L448.474 795.569L461.262 789.835L469.051 803.327C469.301 803.777 469.884 804.002 470.426 803.852L495.959 796.207L502.416 805.913C502.707 806.363 503.332 806.55 503.873 806.325L532.531 794.52L538.571 807L541.112 807L534.655 793.658L553.358 785.938L563.271 807L565.77 807L555.482 785.151L580.391 776.906L588.638 799.242L568.769 807L580.391 807L767.415 733.957C773.038 745.725 778.828 757.83 784.451 769.56L680.775 806.888L686.982 806.888L785.284 771.359C791.324 783.989 797.113 796.132 802.237 806.888L814.858 806.888C814.4 805.951 813.941 804.976 813.483 804.039L848.68 794.52L853.762 806.888L856.22 806.888L850.888 793.92L951.773 766.675L950.856 793.471C950.856 793.471 950.773 793.471 950.731 793.471L919.2 806.85L924.615 806.85L950.773 795.757L950.398 806.85L952.731 806.85L954.105 766.487L1049.66 783.277C1049.66 783.277 1049.82 783.277 1049.91 783.277L1120.72 780.653C1120.72 780.653 1120.84 780.653 1120.89 780.653L1131.88 780.241L1124.63 806.85L1136.55 806.85L1143.63 780.766L1337.94 806.475L1337.82 806.888L1357.06 806.888L1343.27 805.051L1351.77 780.316L1369.01 786.2L1370.18 796.581C1370.22 797.068 1370.68 797.443 1371.22 797.518L1390.67 799.28C1391.3 799.317 1391.88 798.905 1391.92 798.343C1392.01 797.781 1391.51 797.256 1390.88 797.218L1372.39 795.532L1371.22 785.338C1371.18 784.963 1370.89 784.626 1370.47 784.476L1352.4 778.33L1357.14 764.538C1357.14 764.538 1357.19 764.388 1357.19 764.313L1358.23 759.666L1374.26 763.339C1374.76 763.451 1375.26 763.264 1375.51 762.889L1408.29 715.78C1408.63 715.331 1408.5 714.694 1408 714.394L1386.76 700.752L1410.04 667.772C1420.46 673.694 1430.58 679.615 1439.83 685.237L1439.83 672.794C1432.33 668.334 1424.37 663.687 1416.21 659.04L1439.83 625.573L1439.83 617.815L1412.25 656.829C1388.3 643.3 1362.89 629.883 1342.56 620.176C1345.65 613.43 1350.56 602.637 1355.48 591.206L1423.58 617.928C1424.16 618.152 1424.83 617.928 1425.12 617.403C1425.37 616.878 1425.12 616.279 1424.54 616.016L1399.38 606.16L1401.17 554.629L1408 549.682C1408.5 549.307 1408.59 548.67 1408.17 548.22C1407.96 547.958 1407.59 547.845 1407.25 547.845C1407 547.845 1406.75 547.92 1406.54 548.07L1399.3 553.317C1399.05 553.504 1398.88 553.804 1398.88 554.104L1397.09 605.298L1356.31 589.295C1361.6 576.89 1366.77 563.998 1369.56 555.003C1376.68 531.767 1375.05 489.006 1374.97 487.207C1374.97 486.383 1374.35 485.633 1373.51 485.333L1242.51 439.649C1243.6 436.575 1244.64 433.727 1245.64 431.179L1247.3 428.143L1369.56 407.118L1371.01 407.98C1377.35 426.044 1413.08 527.72 1420.16 547.208C1421.33 550.431 1422.87 553.429 1424.66 556.165L1414.75 568.757C1414.58 568.982 1414.5 569.245 1414.54 569.544C1414.58 569.807 1414.75 570.069 1415 570.219L1428.37 578.726C1428.91 579.064 1429.62 578.951 1430 578.464C1430.37 577.977 1430.25 577.34 1429.7 577.002L1417.29 569.095L1426 558.076C1430.12 563.736 1435.16 568.195 1439.87 571.606L1439.87 568.832C1433.12 563.698 1425.87 556.278 1422.33 546.571C1415.54 527.832 1382.22 432.978 1374.05 409.742L1429.41 441.972L1416.12 463.746C1415.83 464.234 1416.04 464.871 1416.58 465.17C1417.12 465.433 1417.83 465.245 1418.17 464.758L1431.37 443.134L1439.87 448.081L1439.87 443.134L1374.89 405.282L1439.87 379.348L1439.87 374.775L1423.37 381.334L1416.42 375.825C1416.21 375.638 1415.87 375.563 1415.62 375.563L1392.34 376.087L1392.34 351.914L1405.34 349.441C1405.79 349.366 1406.17 349.029 1406.25 348.616L1411.63 321.67L1439.87 324.481L1439.87 322.382L1432.37 321.633L1428.5 230.601C1428.5 230.601 1428.45 230.301 1428.37 230.151L1423.41 221.719C1426.75 207.964 1427.91 189.676 1429.37 167.189C1429.41 166.515 1429.45 165.765 1429.5 165.091C1432.99 164.378 1436.49 163.704 1439.87 163.029L1439.87 152.348C1436.74 152.985 1433.49 153.623 1430.2 154.297C1430.5 150.025 1430.83 145.64 1431.16 141.18L1439.87 139.456L1439.87 137.32L1431.33 139.006C1431.91 131.586 1432.62 123.866 1433.54 115.995L1439.87 115.358L1439.87 113.26L1433.79 113.859C1433.95 112.51 1434.08 111.198 1434.24 109.812C1435.7 98.0065 1437.66 81.2916 1439.87 62.1033L1439.87 -40.097C1439.08 -33.2012 1438.28 -26.1555 1437.49 -18.9973L1370.76 -27.5046L1333.36 -32.8639L1333.36 -56.6619L1331.03 -56.6619L1331.03 -33.2012L1270.13 -41.9334L1273.71 -56.6619L1271.34 -56.6619L1267.84 -42.2707L1210.02 -50.5531C1210.11 -52.6143 1210.32 -54.6382 1210.57 -56.6619L1198.9 -56.6619C1198.44 -52.5769 1198.28 -48.3795 1198.49 -44.0322C1198.94 -32.8639 1202.73 -22.3703 1207.94 -13.001L1182.24 15.2568L1158.04 2.6645C1158.04 2.6645 1158 2.6645 1157.96 2.6645C1157.96 2.6645 1157.96 2.6645 1157.92 2.62702L1139.3 -4.53112L1156.71 -39.0476L1156.71 -39.1226C1156.71 -39.1226 1156.71 -39.16 1156.71 -39.1975L1156.71 -39.2725C1156.71 -39.2725 1156.71 -39.3474 1156.71 -39.3849L1158.12 -56.6244L1155.79 -56.6244L1154.5 -40.809L1095.39 -55.2002L1095.73 -56.6244L1093.35 -56.6244L1089.15 -38.1857L1045.12 -51.1902L1046.24 -56.6244L1043.91 -56.6244L1042.66 -50.5906L1032.16 26.9871L990.302 14.0575C995.717 -11.9891 999.591 -31.2149 1000.63 -36.4242C1004.3 -41.4087 1009.55 -48.4918 1015.5 -56.6244L1001.59 -56.6244C999.716 -54.0759 997.841 -51.565 996.05 -49.0915L992.218 -56.6244L979.472 -56.6244L989.094 -37.7359C984.929 -17.1235 978.764 12.8958 971.891 45.5009C958.979 42.4653 935.986 36.8436 909.786 29.5356L918.2 10.872C918.2 10.872 918.283 10.6471 918.283 10.5347C918.283 10.3473 919.241 -7.60423 918.283 -18.6225C918.117 -20.5339 916.2 -25.5558 913.16 -32.6015C913.16 -32.6015 913.16 -32.6015 913.16 -32.639C910.327 -39.16 906.495 -47.405 902.08 -56.6244L899.539 -56.6244C903.871 -47.5174 907.745 -39.31 910.619 -32.7889L884.835 -22.8949C884.252 -22.6701 883.961 -22.0704 884.211 -21.5458C884.461 -21.0211 885.127 -20.7587 885.71 -20.9836L911.41 -30.8401C914.118 -24.5815 915.826 -20.1217 915.951 -18.4352C916.825 -8.09153 916.034 8.39858 915.951 10.3099L907.537 28.9735C899.081 26.6124 890.334 24.0639 881.462 21.3656L852.596 -39.7972L894.916 -56.587L889.167 -56.587L851.679 -41.7459L844.682 -56.587L842.182 -56.587L878.546 20.4287C847.806 10.9845 816.399 -0.183813 793.906 -11.8392L808.11 -25.7807C808.401 -26.043 808.485 -26.4552 808.36 -26.7925L797.863 -56.5869L793.24 -56.5869L779.202 -48.3794L773.829 -56.5869L771.122 -56.5869L777.828 -46.3931C777.994 -46.1308 778.244 -45.9809 778.578 -45.906C778.869 -45.831 779.202 -45.9059 779.452 -46.0558L795.78 -55.6125L805.944 -26.7551L791.823 -12.8886C773.954 -22.1079 757.209 -29.7158 741.006 -35.937L748.962 -55.2002L751.295 -56.5869L747.213 -56.5869C747.213 -56.5869 746.963 -56.362 746.879 -56.2121L738.882 -36.7241C713.64 -46.2058 689.689 -52.2396 664.739 -55.3877L664.739 -56.5869L662.406 -56.5869L662.406 -55.65C659.407 -55.9873 656.408 -56.2871 653.367 -56.5869L581.932 -56.5869L581.932 -56.512C575.142 -56.0623 568.061 -55.5 560.897 -54.8629C560.897 -55.3876 560.897 -55.9498 560.897 -56.5494L556.273 -56.5494C556.273 -55.7998 556.273 -55.0878 556.273 -54.4507C543.194 -53.2514 529.823 -51.8648 516.911 -50.4406L515.786 -56.5869L513.454 -56.5869L514.62 -50.1783C495.918 -48.0796 478.257 -45.8309 463.928 -43.9571L462.428 -56.5869L460.096 -56.5869L461.637 -43.6573C447.017 -41.7085 436.187 -40.172 431.73 -39.5349L427.314 -55.2752L435.937 -56.5869L406.529 -56.5869L424.107 -54.8255C424.107 -54.8255 424.315 -54.8255 424.44 -54.8255L424.982 -54.9005L429.355 -39.3474L397.782 -41.7085L395.991 -56.5869L391.326 -56.5869L393.075 -42.0832L335.177 -46.3931L336.843 -56.5869L334.511 -56.5869L332.845 -46.5805L299.23 -49.0914L296.273 -56.6243L283.985 -56.6243L285.984 -51.49L273.738 -54.1508C273.655 -54.9004 273.572 -55.7249 273.447 -56.6243L261.825 -56.6243C262.075 -54.4132 262.325 -52.277 262.575 -50.1783C260.326 -39.8721 236.5 69.5239 214.257 173.148C195.43 170.338 175.061 167.264 158.108 164.678C157.9 164.678 157.65 164.641 157.442 164.678L43.6865 177.458C43.395 177.458 43.1451 177.571 42.8951 177.683L-0.0911857 197.996L-0.0911855 202.718L44.6446 181.581L157.65 168.876C163.648 169.775 188.307 173.56 213.341 177.271C209.592 194.623 205.927 211.787 202.428 228.24C180.726 232.962 105.167 249.752 95.67 256.498C87.6725 262.194 92.3794 270.477 98.8773 281.907C101.96 287.304 105.417 293.413 108.208 300.346C116.122 320.171 127.493 354.875 128.909 359.297L101.668 396.362C101.668 396.362 101.46 396.775 101.46 397L107.166 508.532C107.166 508.794 107.291 509.056 107.5 509.244L113.664 514.715C71.5943 529.144 40.8541 539.713 37.022 541.024C34.5645 541.512 20.3607 544.435 -0.0911704 548.52L-0.0911699 559.201C15.5705 556.053 27.9416 553.579 34.6478 552.193L40.1044 569.694C40.1044 569.694 39.7711 570.107 39.7295 570.369L37.5635 587.721C37.5635 587.721 37.5635 587.983 37.5635 588.133L46.9355 617.141L-0.132821 623.437L-0.13282 625.535L53.3918 618.34L44.4363 640.264L-0.0911662 644.649L-0.0911661 646.748L44.478 642.363L84.5486 753.408C84.5486 753.408 84.7152 753.707 84.8401 753.857L107.958 773.833L57.7238 760.566L16.9034 714.694C16.9034 714.506 16.8201 714.281 16.6535 714.132C16.5285 713.982 16.3203 713.907 16.1537 713.832L0.20041 695.918L0.20041 699.253L14.0293 714.806L0.200411 725.487L0.200411 728.223L15.4872 716.418L31.9403 734.894L16.5285 745.687C10.9053 739.916 5.44874 734.144 0.200411 728.56L0.200412 744.638C3.32442 747.898 6.44842 751.159 9.61408 754.42L0.200413 760.041L0.200413 762.552L11.1553 756.031C17.9448 763.002 24.8176 769.935 31.5654 776.643L10.4472 785.638L0.200413 769.073L0.200413 773.345L8.36448 786.537L0.200414 790.023L0.200414 792.346L0.200414 792.271ZM68.0538 796.994C62.9721 792.047 57.5155 786.725 51.809 781.141L58.3486 776.081L72.8856 793.283L68.0122 796.994L68.0538 796.994ZM74.6767 791.934L60.1397 774.732L64.43 771.397L79.4668 788.261L74.6767 791.897L74.6767 791.934ZM121.62 799.242L102.335 789.498L110.582 776.681L133.783 782.79L121.662 799.242L121.62 799.242ZM135.074 780.991L111.748 774.845L125.66 753.22L148.736 737.705L159.025 754.982L148.778 762.552C148.778 762.552 148.612 762.702 148.528 762.777L135.074 781.066L135.074 780.991ZM309.685 637.865L340.925 687.373C340.509 687.148 339.967 687.148 339.551 687.448L305.853 714.094L249.496 657.803L229.461 604.286L284.86 588.021L287.067 587.384L297.606 584.273L310.935 619.652L309.519 637.266C309.519 637.453 309.519 637.678 309.685 637.865ZM185.225 673.206L175.853 652.107L188.016 649.933L224.087 684.337L180.601 713.607C175.02 706.336 169.23 698.803 163.732 691.533L184.975 674.368C185.35 674.068 185.475 673.619 185.267 673.206L185.225 673.206ZM216.673 634.605C216.34 634.605 216.048 634.717 215.798 634.942L196.138 654.655L189.224 648.059C188.932 647.797 188.557 647.684 188.141 647.759L174.978 650.12L162.399 618.565L227.17 604.848L238.333 634.605L216.632 634.605L216.673 634.605ZM239.166 636.704L247.413 658.665C247.413 658.665 247.538 658.928 247.663 659.04L271.364 682.726L247.705 703.825L197.804 656.229L217.256 636.741L239.208 636.741L239.166 636.704ZM184.142 736.393L160.858 753.595L150.611 736.393L172.646 721.552C176.686 726.761 180.56 731.783 184.1 736.393L184.142 736.393ZM185.475 738.117C189.182 742.877 192.473 747.149 195.18 750.634L186.433 758.43L184.6 760.079L171.604 771.659L161.982 755.469L185.475 738.117ZM181.893 715.331L225.67 685.874L246.039 705.287L203.427 743.251C197.887 736.131 190.182 726.124 181.893 715.331ZM247.622 706.786L277.445 735.231L246.414 758.28L217.465 734.332C217.465 734.332 217.131 734.144 216.965 734.107L247.622 706.786ZM249.246 705.324L272.864 684.262L304.062 715.443L279.195 733.919L249.246 705.324ZM227.711 602.637L161.649 616.616L141.739 566.621L233.335 537.239L264.7 527.42L284.193 586.072L227.753 602.674L227.711 602.637ZM159.4 617.103L122.828 624.861C122.62 624.636 122.453 624.411 122.245 624.224L77.2592 587.346L139.614 567.333L159.441 617.141L159.4 617.103ZM160.191 619.089L173.187 651.732L182.767 673.319L162.357 689.846C147.987 670.995 135.657 654.618 134.033 651.919C132.658 648.809 126.952 634.418 123.953 626.772L160.191 619.089ZM171.354 719.866L149.528 734.557L136.865 713.307L155.026 698.616C160.399 705.662 165.981 712.895 171.354 719.866ZM155.193 786.313L137.448 781.628L150.403 764.014L160.15 756.818L169.896 773.196L155.193 786.313ZM158.442 786.313L185.058 762.59L188.974 785.301L158.442 786.275L158.442 786.313ZM213.757 784.514L191.265 785.226L187.058 760.753L196.513 752.321C200.262 757.118 202.553 760.079 202.678 760.191C204.427 762.215 212.924 767.911 224.587 775.294L213.757 784.476L213.757 784.514ZM211.8 753.82C211.05 752.958 208.509 749.772 204.802 744.975L215.59 735.344C215.632 735.531 215.715 735.718 215.923 735.868L244.623 759.629L233.21 768.099C221.63 760.866 213.424 755.506 211.8 753.82ZM279.237 796.132C263.367 786.65 247.538 777.018 235.167 769.335L306.478 716.343L341.05 689.022C341.3 688.797 341.425 688.535 341.425 688.235L353.796 707.873L279.237 796.132ZM390.993 650.195L355.254 705.887L311.893 637.116L313.267 619.614C313.267 619.614 313.267 619.352 313.226 619.202L299.813 583.636L470.009 533.641L391.034 650.195L390.993 650.195ZM286.359 585.397L266.532 525.734C266.449 525.471 266.241 525.246 265.949 525.097C265.783 525.022 265.616 524.984 265.408 524.984C265.283 524.984 265.158 524.984 265.033 525.059L233.626 534.878L218.048 489.98C278.945 469.031 340.3 447.856 374.498 435.938L392.242 486.907C392.326 487.17 392.534 487.395 392.825 487.507C393.117 487.619 393.409 487.657 393.742 487.582L448.349 471.017L471.092 531.093L286.359 585.397ZM258.535 212.687L287.276 203.242L265.991 273.025L248.621 271.226L258.535 212.687ZM246.33 271.001L235.292 269.839L242.082 218.083L256.077 213.474L246.33 270.964L246.33 271.001ZM329.637 115.171C329.929 115.208 330.262 115.171 330.512 114.984C330.762 114.834 330.928 114.571 330.97 114.309L335.969 85.3767C336.052 84.852 335.677 84.3273 335.094 84.2149L314.559 80.0175L316.225 69.8987L357.545 75.3328C357.878 75.3703 358.253 75.2953 358.503 75.0704L364.709 69.7862L381.496 70.9855L375.623 121.692C375.623 121.692 375.373 121.767 375.248 121.842C368.625 125.89 361.252 130.424 353.546 135.072L342.3 125.065C342.092 124.878 341.8 124.765 341.467 124.765C341.175 124.765 340.925 124.84 340.717 125.028L318.891 142.192L304.728 139.456L309.31 111.686L329.596 115.171L329.637 115.171ZM309.727 109.624L314.267 82.0412L333.553 85.9764L328.887 112.885L309.685 109.587L309.727 109.624ZM497.75 -16.5238L529.699 -21.9206C529.699 -21.9206 529.699 -21.8081 529.699 -21.7706L537.821 18.48L504.665 23.5393L497.75 -16.5238ZM498.333 0.415872L454.722 4.38847C453.848 -1.45797 453.056 -6.55483 452.723 -8.87844L495.501 -16.1116L498.375 0.415872L498.333 0.415872ZM539.362 20.3537C539.654 20.3163 539.945 20.1664 540.112 19.9415C540.278 19.7167 540.362 19.4168 540.32 19.1545L531.989 -22.1079C531.989 -22.1079 531.948 -22.2204 531.906 -22.2578L558.023 -26.6801L566.187 13.2706C566.187 13.2706 565.937 13.458 565.854 13.5329L523.451 62.5906L508.08 43.6646L504.956 25.638L539.32 20.3912L539.362 20.3537ZM245.164 453.74L242.207 448.531L244.831 424.995L284.568 423.833L283.402 435.414L245.164 453.74ZM283.152 437.85L281.236 457.075C271.947 460.261 262.409 463.559 252.703 466.894L246.247 455.576L283.194 437.85L283.152 437.85ZM321.306 302.594L352.172 298.697L355.421 320.658C355.462 320.958 355.671 321.221 355.921 321.371C356.212 321.52 356.545 321.595 356.879 321.52L407.737 309.041L423.399 346.405L362.918 365.818L350.755 369.716L341.425 346.293C341.217 345.806 340.634 345.506 340.092 345.618L303.562 353.001L321.348 302.594L321.306 302.594ZM311.81 322.532L277.737 310.802L281.278 290.152L288.234 297.16C288.234 297.16 288.65 297.46 288.9 297.498L318.974 302.482L311.893 322.57C311.893 322.57 311.893 322.57 311.851 322.57L311.81 322.532ZM354.379 139.531L360.128 150.325L335.927 164.341C335.51 164.603 335.302 165.053 335.427 165.503L341.3 183.192L329.262 187.127L317.224 161.755C329.471 154.522 342.591 146.614 354.379 139.494L354.379 139.531ZM326.805 151.074L320.848 143.354L341.508 127.089L351.672 136.121C343.508 141.068 335.01 146.165 326.805 151.074ZM337.926 165.69L362.252 151.599C362.752 151.299 362.918 150.737 362.668 150.287L356.337 138.369C362.96 134.359 369.083 130.612 374.29 127.426L359.419 177.308L343.508 182.518L337.926 165.69ZM561.48 137.47C561.772 137.995 562.438 138.219 563.021 137.957C563.604 137.695 563.854 137.095 563.563 136.571L558.564 127.201L578.558 119.481C579.099 119.256 579.391 118.694 579.183 118.169L571.185 97.4818L631.458 72.2972L653.284 129.412C562.272 165.053 457.43 206.241 449.849 209.239L449.599 209.314L429.48 156.508L432.105 155.646L471.759 139.081L545.86 108.088L561.522 137.47L561.48 137.47ZM547.901 107.226L569.103 98.3813L576.684 117.982L557.565 125.327L547.901 107.226ZM757.085 209.876L696.104 235.21L675.569 181.393L737.591 157.445L757.085 209.913L757.085 209.876ZM739.715 156.583L786.2 138.632L800.571 164.678C800.696 164.941 800.946 165.128 801.279 165.203C801.57 165.278 801.904 165.241 802.195 165.128L814.275 159.094L828.312 180.269L759.209 208.976L739.757 156.583L739.715 156.583ZM674.777 179.369L656.117 130.537C668.988 125.477 681.609 120.568 693.563 115.883L699.395 132.486C699.478 132.748 699.728 132.973 700.019 133.123C700.311 133.235 700.644 133.272 700.936 133.123L725.261 124.39L736.758 155.384L674.694 179.332L674.777 179.369ZM672.653 180.194L580.516 215.76L576.392 206.915C576.225 206.503 575.767 206.278 575.309 206.278C575.142 206.278 575.017 206.278 574.851 206.353C574.268 206.578 573.976 207.178 574.226 207.702L578.391 216.584L468.51 259.008L450.307 211.263L450.64 211.15C452.515 210.401 560.522 167.976 653.992 131.361L672.611 180.194L672.653 180.194ZM368.333 381.259L356.962 385.232L351.547 371.627L362.668 368.067L368.333 381.259ZM364.834 367.355L404.363 354.65L409.029 367.018L370.499 380.51L364.834 367.355ZM354.796 385.981L310.518 401.459L304.937 386.581L349.339 372.34L354.796 385.981ZM308.352 402.209L288.359 409.18L290.15 391.303L302.771 387.255L308.352 402.209ZM309.102 404.195L316.433 423.796L299.813 429.567L285.943 434.402L288.234 411.503L309.185 404.158L309.102 404.195ZM311.268 403.446L355.587 387.93L363.376 407.493L318.557 423.046L311.226 403.446L311.268 403.446ZM357.753 387.181L370.249 382.796L409.778 368.967L417.276 388.792L365.542 406.744L357.753 387.181ZM411.944 368.217L446.35 356.187L454.472 375.9L419.442 388.042L411.944 368.217ZM411.195 366.231L406.529 353.938L440.852 342.92L445.517 354.238L411.153 366.231L411.195 366.231ZM425.565 345.618L416.693 324.481C416.693 324.481 416.818 324.481 416.901 324.481L432.063 321.67L440.06 341.009L425.565 345.656L425.565 345.618ZM434.312 321.146L450.932 317.398L457.263 334.263L445.434 339.172L442.143 340.222L434.229 321.108L434.312 321.146ZM452.806 315.824C452.64 315.374 452.182 315.112 451.723 315.112C451.64 315.112 451.515 315.112 451.432 315.112L432.521 319.347L416.401 322.345C416.401 322.345 416.068 322.457 415.901 322.57L401.073 287.191L467.093 261.707L489.628 320.808L459.429 333.363L452.806 315.786L452.806 315.824ZM382.412 294.462L398.99 288.053L406.904 306.942L387.66 311.664L382.412 294.462ZM385.411 312.226L357.503 319.084L354.421 298.285L380.163 295.024L385.411 312.226ZM471.717 136.683L452.223 100.742L524.075 67.3127L544.777 106.102L471.717 136.645L471.717 136.683ZM469.634 137.545L431.188 153.623L428.689 154.447L414.86 118.132L450.224 101.679L469.676 137.545L469.634 137.545ZM426.523 155.159L362.002 176.334L377.122 125.515C377.122 125.515 377.372 125.365 377.497 125.29L412.611 118.806L426.481 155.159L426.523 155.159ZM361.294 178.77L379.413 172.811C379.413 172.811 379.413 172.848 379.413 172.886L387.619 200.432L352.38 208.827L361.335 178.77L361.294 178.77ZM389.285 202.193C389.576 202.118 389.826 201.931 389.993 201.706C390.16 201.481 390.201 201.181 390.118 200.919L381.621 172.361C381.621 172.361 381.537 172.211 381.496 172.136L427.273 157.108L447.391 209.876L382.495 230.563L342.008 243.455L351.63 211.15L389.285 202.193ZM382.079 232.887L387.869 249.639C388.077 250.201 388.702 250.501 389.327 250.314C389.951 250.126 390.285 249.564 390.076 249.002L384.245 232.175L448.099 211.825L466.344 259.721L380.704 292.775L352.963 296.298L322.056 300.233L341.217 245.891L382.037 232.887L382.079 232.887ZM339.551 347.68L348.548 370.241L290.858 388.755L302.729 355.1L302.812 355.1L339.551 347.68ZM288.359 389.017L271.572 381.859L277.362 352.477L300.355 354.95L288.317 389.054L288.359 389.017ZM284.777 421.547L245.039 422.709L246.997 405.057L287.734 391.978L284.777 421.51L284.777 421.547ZM285.61 436.613L299.397 431.816L305.52 448.531C298.439 450.967 291.149 453.478 283.652 456.064L285.61 436.613ZM301.563 431.066L317.224 425.632L324.472 441.972C319.057 443.846 313.476 445.795 307.686 447.781L301.563 431.066ZM319.39 424.883L364.21 409.33L370.791 425.857C359.003 429.979 343.883 435.226 326.638 441.185L319.39 424.845L319.39 424.883ZM366.334 408.58L418.026 390.628L424.274 407.193C410.528 411.84 399.907 415.476 393.992 417.612C389.993 419.074 382.662 421.659 372.873 425.07L366.292 408.542L366.334 408.58ZM398.407 427.281C404.197 425.182 414.61 421.585 428.064 417.05L447.641 468.806L394.158 485.033L376.706 434.926C386.786 431.404 394.283 428.743 398.407 427.281ZM426.481 406.444L420.192 389.879L455.306 377.699L462.262 394.489C449.099 398.873 436.978 402.921 426.481 406.444ZM457.472 376.949L504.831 360.534L511.538 378.186C495.251 383.545 479.215 388.867 464.386 393.776L457.43 376.949L457.472 376.949ZM456.68 375L448.558 355.287L496.501 338.535L504.123 358.548L456.722 375L456.68 375ZM447.725 353.339L443.059 342.095L446.392 341.009L490.419 322.72L495.709 336.549L447.725 353.339ZM469.301 260.845L673.444 182.03L694.021 235.923L612.256 269.877L491.836 319.909L469.343 260.882L469.301 260.845ZM696.395 237.197L730.926 222.843L750.92 276.623L672.903 309.378L696.395 237.197ZM733.05 221.981L854.553 171.499C855.262 187.877 855.928 213.024 854.762 215.123C852.471 216.922 816.107 227.153 793.739 233.187C793.531 233.224 793.323 233.337 793.198 233.487L752.794 275.124L733.05 221.944L733.05 221.981ZM854.803 169.138L830.436 179.257L815.691 157.033C815.358 156.546 814.691 156.396 814.15 156.658L802.153 162.655L788.366 137.657L809.609 129.45C809.609 129.45 809.693 129.412 809.734 129.375C809.818 129.337 809.901 129.3 809.984 129.225C809.984 129.225 810.026 129.225 810.026 129.188L880.295 58.5055L893.416 60.2669L893.541 60.3419L888.959 70.4607C888.959 70.4607 888.876 70.7231 888.876 70.8355L888.876 106.476L854.803 169.138ZM845.556 90.3237L810.817 62.2533C816.399 57.5312 822.48 52.2843 828.395 47.075L862.384 73.384L845.556 90.3237ZM844.015 91.8603L828.52 107.413L803.111 68.6244C804.986 67.0878 807.027 65.4013 809.11 63.6774L844.015 91.8603ZM826.896 109.062L809.609 126.452L792.407 76.7569C794.698 75.2203 797.738 72.8968 801.32 70.0485L826.896 109.062ZM807.693 127.913L787.325 135.783L780.119 122.704C779.911 122.329 779.494 122.142 779.077 122.142C778.911 122.142 778.744 122.142 778.578 122.254C777.994 122.517 777.786 123.116 778.036 123.641L785.201 136.608L739.007 154.447L720.679 105.165C759.209 90.0987 786.783 79.3803 788.991 78.6683C789.366 78.5559 789.866 78.2935 790.407 77.9937L807.652 127.913L807.693 127.913ZM724.595 122.292L701.269 130.649L695.729 114.909C703.643 111.798 711.266 108.837 718.513 105.989L724.553 122.292L724.595 122.292ZM655.408 128.438L633.582 71.2478L695.937 45.1637L717.805 104.003C698.978 111.348 677.651 119.706 655.408 128.401L655.408 128.438ZM632.832 69.2614L608.798 6.2623L675.235 -10.6399L695.229 43.1773L632.832 69.2614ZM630.708 70.1609L546.901 105.202L526.033 66.1134L569.019 16.3812L606.507 6.86197L630.666 70.1984L630.708 70.1609ZM568.395 12.2212L566.27 1.87754L601.092 -7.45425L605.05 2.92685L568.395 12.2587L568.395 12.2212ZM565.854 -0.183741L560.314 -27.2798L591.512 -32.5641L600.343 -9.44064L565.854 -0.183741ZM521.743 63.7148L464.386 90.3987L459.721 48.9488L506.456 44.9013L521.743 63.7148ZM462.178 91.4105L412.278 114.609L378.08 120.905L387.202 42.6153L457.43 48.9488L462.22 91.4105L462.178 91.4105ZM429.897 6.5247C429.564 6.74955 429.355 7.08683 429.397 7.46159C429.397 7.76139 429.605 8.02378 429.855 8.17369L429.397 44.3017L387.41 40.5165L393.117 -8.42873L430.064 -5.76778L429.897 6.48716L429.897 6.5247ZM385.12 40.2916L357.92 36.9562L362.668 -10.6024L390.826 -8.57857L385.161 40.2916L385.12 40.2916ZM355.629 36.6938L322.39 32.6463L322.806 30.1728L323.139 28.0365L329.887 -12.9635L360.336 -10.7523L355.629 36.6938ZM384.87 42.3529L381.829 68.6244L364.459 67.3876C364.126 67.3876 363.793 67.4626 363.585 67.6499L357.42 72.8967L316.641 67.5376L322.056 34.67L384.911 42.3529L384.87 42.3529ZM318.599 143.991L324.847 152.086C316.1 157.295 307.728 162.242 300.313 166.552L304.479 141.255L318.599 143.954L318.599 143.991ZM315.267 162.805L327.096 187.727L290.691 199.682L299.064 172.211C304.062 169.363 309.519 166.177 315.225 162.805L315.267 162.805ZM329.096 189.301L343.05 184.729L358.628 179.594L339.217 244.767L319.64 300.308L289.65 295.361L268.115 273.7L289.9 202.193L329.012 189.338L329.096 189.301ZM267.074 275.723L279.237 287.978L275.28 311.177C275.196 311.664 275.488 312.151 276.029 312.301L310.976 324.331C310.976 324.331 311.101 324.331 311.143 324.331L301.063 352.889L242.082 346.555L250.287 302.295L267.074 275.723ZM275.071 352.214L269.281 381.634L233.709 391.903L241.707 348.617L275.071 352.177L275.071 352.214ZM270.198 383.583L286.026 390.329L230.71 408.093L233.293 394.226L270.239 383.545L270.198 383.583ZM244.581 405.844L242.707 422.784L227.92 423.234L230.294 410.454L244.623 405.844L244.581 405.844ZM242.457 424.883L239.832 448.456C239.832 448.643 239.832 448.868 239.957 449.018L243.123 454.527L220.089 465.583L227.545 425.295L242.498 424.845L242.457 424.883ZM215.09 479.674C197.513 485.708 179.977 491.742 163.107 497.551C165.19 485.521 169.98 457.45 175.061 428.181L227.753 411.278L215.09 479.712L215.09 479.674ZM219.547 468.206L244.123 456.401L250.454 467.494C239.583 471.242 228.586 475.027 217.548 478.812L219.506 468.206L219.547 468.206ZM472.883 529.257L450.557 470.192L534.155 444.82L472.883 529.257ZM449.807 468.244L430.189 416.413C452.848 408.767 483.547 398.574 515.286 388.117L535.488 442.234L449.807 468.244ZM599.093 383.245C591.429 388.867 561.272 407.83 560.98 408.018C560.855 408.093 560.772 408.205 560.689 408.318L537.321 440.548L517.494 387.443C560.689 373.201 605.508 358.51 634.374 349.066C622.877 360.759 604.3 379.46 599.135 383.283L599.093 383.245ZM513.704 377.549L492.502 321.933L612.006 272.313L641.205 335.724C613.713 344.719 562.688 361.396 513.662 377.549L513.704 377.549ZM663.698 328.716C663.031 328.716 662.365 328.828 661.74 329.016C661.365 329.128 654.575 331.339 643.412 334.975L614.13 271.413L693.563 238.434L664.156 328.754C664.156 328.754 663.822 328.716 663.698 328.716ZM668.529 331.077C667.988 330.328 667.238 329.728 666.363 329.316L671.945 312.151L752.711 278.234C752.711 278.234 752.794 278.159 752.836 278.159C752.919 278.122 752.961 278.084 753.044 278.009C753.044 278.009 753.044 278.009 753.086 277.972L794.614 235.173C809.026 231.275 854.387 218.945 856.428 216.547C858.469 214.186 857.303 183.567 856.678 170.225L890.917 107.263C890.917 107.263 891.042 106.964 891.042 106.814L891.042 71.1353L895.457 61.3913L962.019 92.2725C947.857 157.858 933.403 221.082 928.322 230.863C926.822 233.711 925.697 236.26 924.698 238.471C918.575 252.15 916.7 256.31 844.265 280.033C843.307 280.333 842.516 280.858 841.849 281.532C841.141 282.282 772.663 354.238 745.338 373.951C733.717 379.123 722.47 384.707 711.682 390.666L668.529 331.077ZM988.802 202.118C989.344 202.418 990.052 202.23 990.385 201.743L995.758 193.348L1022.13 202.493L992.801 248.44L985.97 245.479L992.135 225.541C992.301 224.979 991.926 224.417 991.343 224.267C991.218 224.267 991.135 224.23 991.01 224.23C990.51 224.23 990.052 224.529 989.885 224.979L983.804 244.542L942.026 226.441C945.191 216.322 949.523 199.42 954.355 178.995L993.509 192.561L988.303 200.694C987.969 201.181 988.178 201.818 988.719 202.118L988.802 202.118ZM1108.47 49.6234L1104.14 38.4177L1109.72 18.8922L1147.42 28.6737L1129.72 79.1929L1120.43 100.667C1112.93 97.8191 1105.39 94.8959 1097.81 92.0101L1108.51 50.2606C1108.56 50.0732 1108.51 49.8858 1108.51 49.6984L1108.47 49.6234ZM1320.49 80.767C1320.41 80.4297 1320.28 80.0549 1320.07 79.6426L1353.48 83.6527L1343.94 149.5L1300.33 142.567C1310.62 116.97 1321.7 87.1381 1320.41 80.767L1320.49 80.767ZM1379.22 186.64L1382.64 258.596C1374.85 266.092 1365.77 274.562 1356.14 283.406L1356.14 190.463L1379.22 186.603L1379.22 186.64ZM1356.14 188.364L1356.14 176.671C1362.31 176.221 1370.06 175.247 1378.64 173.973L1379.14 184.541L1356.14 188.364ZM1380.93 173.635C1392.38 171.874 1405.17 169.588 1417.79 167.189C1415.83 197.733 1414.25 221.831 1406.71 233.224C1404.05 237.272 1395.92 245.742 1384.84 256.46L1380.93 173.635ZM1349.23 166.552C1347.81 166.552 1345.98 166.44 1343.9 166.215L1347.23 143.241L1399.84 147.139C1399.84 147.139 1400.09 147.139 1400.17 147.139L1419.37 143.316C1419.04 147.776 1418.75 152.161 1418.46 156.396C1390.92 161.718 1362.22 166.552 1349.19 166.552L1349.23 166.552ZM982.888 310.652L982.554 316.274L930.154 311.889L930.488 291.014L950.814 293.15L983.721 297.273L983.013 309.041C982.721 309.228 982.513 309.49 982.513 309.828C982.513 310.165 982.638 310.465 982.929 310.652L982.888 310.652ZM822.605 326.168L895.957 308.216L898.789 331.077C890.001 332.201 881.17 333.626 872.298 335.312C856.636 338.31 841.516 341.721 826.937 345.581L822.647 326.168L822.605 326.168ZM824.688 346.143C808.36 350.49 792.698 355.4 777.661 360.871C790.532 349.066 804.819 335.05 817.357 322.457L820.189 325.83L824.688 346.105L824.688 346.143ZM898.248 307.916L913.576 307.916L916.7 312.413C916.909 312.676 917.2 312.863 917.575 312.901L927.822 313.763L927.614 328.266C918.825 328.791 909.994 329.653 901.122 330.74L898.29 307.879L898.248 307.916ZM918.366 310.877L915.201 306.305C914.993 306.005 914.618 305.817 914.201 305.817L896.957 305.817C896.957 305.817 896.873 305.817 896.832 305.817C896.832 305.817 896.832 305.817 896.79 305.817C896.79 305.817 896.707 305.817 896.665 305.817L821.731 324.144L818.94 320.808C833.935 305.743 846.098 293.038 849.68 289.253C899.581 272.875 917.7 265.042 926.655 256.16L928.655 259.008L927.863 311.589L918.366 310.802L918.366 310.877ZM928.238 254.549C929.78 252.787 931.029 250.951 932.154 249.002L964.643 253.687L963.769 260.62L959.937 279.883L950.481 290.977L930.529 288.915L930.987 258.821C930.987 258.634 930.946 258.409 930.821 258.259L928.238 254.586L928.238 254.549ZM978.431 261.969L966.143 259.945L968.642 240.27L983.179 246.566L978.389 261.969L978.431 261.969ZM985.345 247.503L992.176 250.464L993.926 264.518L980.722 262.344L985.345 247.503ZM964.893 251.625L933.237 247.053C933.987 245.554 934.736 244.018 935.486 242.331C936.486 240.12 937.485 237.834 938.86 235.248C939.568 233.861 940.484 231.538 941.484 228.465L966.518 239.333L964.935 251.663L964.893 251.625ZM930.154 313.95L982.471 318.335L981.846 328.604C964.768 327.329 947.482 327.18 929.946 328.154L930.154 313.95ZM953.105 291.276L961.936 280.933C961.936 280.933 962.144 280.633 962.144 280.483L965.851 261.969L979.014 264.143L994.925 266.766L995.217 266.766L1039.58 268.265L1043.74 300.383L1012.25 299.259C1012.25 299.259 1012.25 299.259 1012.21 299.259C1011.92 299.259 1011.63 299.371 1011.42 299.559C1011.21 299.746 1011.05 300.009 1011.05 300.308L1011.05 310.202L985.345 308.853L986.095 296.336C986.095 295.811 985.678 295.324 985.095 295.249L953.105 291.239L953.105 291.276ZM1321.9 173.261L1316.53 218.571L1293.46 214.86C1293.46 214.86 1293.33 214.86 1293.25 214.86C1292.75 214.86 1292.29 215.16 1292.12 215.61L1279.08 257.884L1251.3 248.29L1260.01 230.676L1290.25 166.59C1301.41 169.138 1312.32 171.424 1321.86 173.223L1321.9 173.261ZM1294.58 156.883C1296.16 152.985 1297.87 148.826 1299.62 144.516L1343.73 151.524L1341.65 165.915C1330.69 164.566 1313.24 161.081 1294.58 156.883ZM1294.75 338.535L1270.5 320.658L1329.53 300.533C1329.53 300.533 1329.61 300.533 1329.65 300.496L1341.98 296.298C1325.57 311.177 1308.7 326.205 1294.7 338.535L1294.75 338.535ZM1341.36 311.664L1332.36 359.372L1323.4 359.597L1324.4 326.842C1329.86 322.008 1335.53 316.911 1341.32 311.664L1341.36 311.664ZM1322.07 328.941L1321.11 359.635L1286.29 360.459C1292.5 355.062 1305.95 343.257 1322.03 328.941L1322.07 328.941ZM1261.63 200.769L1250.3 224.792L1218.65 213.474L1230.48 188.551L1261.67 200.769L1261.63 200.769ZM1231.35 186.64L1237.51 173.635L1251.18 178.357L1243.47 191.4L1231.31 186.64L1231.35 186.64ZM1245.64 192.224L1253.38 179.07L1269.3 184.541L1262.55 198.82L1245.64 192.187L1245.64 192.224ZM1238.43 171.687L1245.97 155.796C1256.09 158.42 1267.51 161.23 1279 163.929L1270.17 182.63L1238.43 171.687ZM1236.27 170.937L1206.69 160.743L1212.9 146.539C1213.44 146.727 1213.98 146.914 1214.4 147.027C1220.1 148.863 1230.77 151.824 1243.72 155.197L1236.27 170.9L1236.27 170.937ZM1235.35 172.848L1216.48 212.687L1191.2 196.234L1205.86 162.655L1235.39 172.848L1235.35 172.848ZM1189.16 195.147L1182.82 192.224L1197.28 159.544L1201.03 161.043L1203.65 161.943L1189.16 195.185L1189.16 195.147ZM1180.74 191.25L1133.01 169.101L1139.46 153.285L1189.03 172.511L1180.74 191.25ZM1171.66 189.376L1151.38 231.613L1114.14 215.385L1132.21 171.049L1171.7 189.376L1171.66 189.376ZM1150.46 233.524L1130.17 275.798L1094.94 262.494L1113.35 217.371L1150.5 233.561L1150.46 233.524ZM1173.74 190.313L1180.87 193.611C1180.87 193.611 1180.87 193.611 1180.91 193.611L1189.03 197.396L1215.19 214.411C1215.19 214.411 1215.36 214.486 1215.44 214.523L1177.91 293.787L1132.26 276.548L1173.7 190.275L1173.74 190.313ZM1217.69 215.348L1249.34 226.666L1210.15 306.005L1180.07 294.649L1217.65 215.348L1217.69 215.348ZM1224.14 303.344L1266.38 320.658L1246.72 342.508L1239.47 349.516L1206.07 339.847L1224.1 303.307L1224.14 303.344ZM1225.1 301.433L1250.47 250.126L1279.54 260.17C1279.83 260.283 1280.17 260.245 1280.46 260.133C1280.75 259.983 1280.96 259.758 1281.04 259.496L1294.12 217.034L1316.32 220.632L1314.32 237.459L1297.33 235.435C1297.33 235.435 1297.25 235.435 1297.16 235.435C1296.58 235.435 1296.08 235.81 1296 236.335C1295.91 236.897 1296.37 237.422 1297 237.497L1304.24 238.359L1295.04 252.225C1294.83 252.525 1294.83 252.9 1295 253.199L1298.04 259.083L1291.21 267.328C1290.96 267.666 1290.91 268.078 1291.12 268.415L1299.5 282.956L1285.17 289.44L1280.42 279.321C1280.25 278.984 1279.92 278.759 1279.5 278.684C1279.08 278.646 1278.71 278.759 1278.42 279.059L1260.05 299.596C1259.76 299.934 1259.72 300.421 1259.97 300.796L1268.3 312.563C1268.63 313.051 1269.34 313.201 1269.88 312.901L1290.29 301.845L1293.16 310.652L1268.21 319.159L1225.02 301.47L1225.1 301.433ZM1289.46 299.896L1269.71 310.577L1262.42 300.308L1279.04 281.72L1283.5 291.239C1283.5 291.239 1283.5 291.276 1283.54 291.314C1283.54 291.314 1283.54 291.351 1283.54 291.389L1289.42 299.896L1289.46 299.896ZM1328.11 298.734L1295.41 309.865L1292.16 299.934C1292.16 299.934 1292.12 299.859 1292.12 299.821C1292.12 299.784 1292.12 299.709 1292.04 299.671L1286.25 291.239L1301.62 284.306C1301.91 284.193 1302.12 283.968 1302.2 283.706C1302.29 283.444 1302.29 283.144 1302.12 282.919L1293.54 268.04L1300.37 259.795C1300.62 259.496 1300.66 259.083 1300.49 258.746L1297.41 252.787L1306.83 238.621L1331.07 241.507L1328.11 298.734ZM1283.33 154.185C1272.71 151.711 1262.05 149.088 1252.39 146.614L1259.17 132.935L1288.12 142.342C1286.54 146.277 1284.92 150.25 1283.29 154.185L1283.33 154.185ZM1250.14 146.015C1236.43 142.492 1224.85 139.269 1218.31 137.17C1215.98 136.421 1211.44 134.809 1205.32 132.56L1213.77 118.169L1257.05 132.223L1250.18 146.015L1250.14 146.015ZM1210.73 145.715L1204.53 159.919L1201.94 159.019L1146.13 136.983L1151.58 123.641C1178.53 133.872 1200.78 142.23 1210.73 145.715ZM1195.2 158.607L1189.95 170.487L1140.3 151.262L1145.34 138.932L1195.2 158.607ZM1138.17 150.437L1091.85 132.485L1096.6 119.668L1143.21 138.07L1138.17 150.437ZM1137.38 152.386L1131.01 168.051L1086.35 147.326L1091.1 134.434L1137.38 152.348L1137.38 152.386ZM1130.17 170L1112.1 214.373L1074.44 197.958L1096.43 154.335L1130.17 170ZM1111.26 216.359L1092.39 262.644C1092.19 263.168 1092.48 263.731 1093.02 263.955L1177.03 295.699L1164.7 321.708L1148.96 313.051L1146.88 306.417C1146.79 306.117 1146.54 305.855 1146.21 305.743L1041.66 266.429L1039.49 249.714L1046.41 227.977L1065.82 235.061C1066.4 235.285 1067.07 235.023 1067.32 234.498C1067.57 233.974 1067.28 233.374 1066.69 233.149L1047.08 225.991L1051.41 212.387L1064.2 216.06C1064.74 216.21 1065.36 215.985 1065.61 215.497L1073.48 199.907L1111.31 216.397L1111.26 216.359ZM1037.29 249.302C1037.29 249.302 1037.25 249.564 1037.29 249.714L1039.41 266.054L1016.75 265.305L1013.5 244.43L1033.37 227.34C1033.37 227.34 1033.62 227.078 1033.66 226.891L1039.91 208.452L1049.24 211.675L1037.29 249.302ZM985.262 310.802L1012.17 312.226C1012.5 312.226 1012.79 312.151 1013.04 311.926C1013.29 311.739 1013.42 311.439 1013.42 311.177L1013.42 301.245L1043.7 302.332L1040.79 315.749L1036.29 336.511C1019.21 332.651 1001.8 330.028 984.179 328.604L985.262 310.802ZM1042.87 317.173C1058.07 319.834 1081.19 324.106 1085.73 325.605L1074.9 347.417C1062.95 343.332 1050.82 339.884 1038.58 337.036L1042.87 317.173ZM1087.69 326.805C1091.31 329.091 1102.31 334.413 1134.17 349.179C1141.55 352.589 1148.92 355.999 1155.62 359.073L1143.5 377.249C1134.71 373.089 1125.22 368.592 1114.93 363.72C1102.52 357.836 1089.85 352.664 1077.07 348.204L1087.69 326.842L1087.69 326.805ZM1157.71 360.01C1166.91 364.207 1174.58 367.73 1178.78 369.641L1169.08 389.317C1161.91 385.944 1154.08 382.234 1145.63 378.223L1157.75 360.01L1157.71 360.01ZM1088.6 324.968L1093.23 315.674L1103.52 314.287L1134.26 321.183L1187.03 352.964L1179.74 367.767C1144.25 351.615 1094.35 328.529 1088.65 324.968L1088.6 324.968ZM1135.38 319.347C1135.38 319.347 1135.13 319.234 1135.01 319.197L1103.85 312.189C1103.85 312.189 1103.68 312.189 1103.56 312.189C1103.52 312.189 1103.43 312.189 1103.39 312.189L1092.27 313.688C1091.89 313.725 1091.56 313.95 1091.39 314.287L1086.69 323.807C1084.77 323.132 1080.36 322.008 1070.03 319.984L1072.98 308.441C1073.11 307.879 1072.73 307.317 1072.11 307.204C1072.03 307.204 1071.94 307.204 1071.86 307.204C1071.32 307.204 1070.86 307.541 1070.73 308.029L1067.74 319.609C1061.61 318.447 1053.66 316.986 1043.33 315.187L1046.24 301.62C1046.24 301.62 1046.24 301.545 1046.24 301.508C1046.24 301.508 1046.24 301.508 1046.24 301.433C1046.24 301.433 1046.24 301.395 1046.24 301.358C1046.24 301.358 1046.24 301.283 1046.24 301.245L1042.04 268.79L1144.84 307.467L1146.92 313.987C1147 314.25 1147.17 314.437 1147.42 314.587L1164.66 324.106L1194.32 337.86L1187.82 350.977L1135.21 319.272L1135.38 319.347ZM1166.83 322.757L1179.28 296.523L1209.32 307.879L1195.4 336.062L1166.83 322.795L1166.83 322.757ZM1205.23 341.758L1271.67 360.984L1262.84 376.912L1198.32 355.85L1205.28 341.796L1205.23 341.758ZM1242.01 350.19L1247.97 344.419L1274.13 356.711C1273.96 356.899 1273.84 357.124 1273.71 357.349L1272.75 359.073L1242.06 350.19L1242.01 350.19ZM1249.51 342.807L1268.5 321.708L1293.16 339.884C1286.5 345.731 1280.58 350.94 1275.75 355.137L1249.51 342.807ZM1283.58 362.82C1283.58 362.82 1283.79 362.633 1283.92 362.52L1333.44 361.359C1333.98 361.359 1334.44 360.984 1334.57 360.497L1344.27 309.041C1347.48 306.155 1350.69 303.232 1353.89 300.308L1353.89 376.687L1274.92 378.448L1283.58 362.858L1283.58 362.82ZM1346.02 292.625L1330.53 297.91L1333.48 240.607C1333.48 240.082 1333.07 239.595 1332.48 239.52L1316.7 237.646L1324.28 173.56C1335.19 175.547 1344.15 176.821 1349.31 176.821C1350.69 176.821 1352.23 176.784 1353.89 176.671L1353.89 285.392C1351.31 287.791 1348.65 290.19 1345.98 292.588L1346.02 292.625ZM1399.96 144.928L1347.6 141.03L1350.23 122.929L1382.01 120.68L1421.87 116.782C1420.96 125.102 1420.25 133.198 1419.67 140.993L1399.96 144.89L1399.96 144.928ZM1288.96 140.393L1260.17 131.024L1283.17 84.8145C1283.42 84.3273 1283.21 83.8026 1282.75 83.5028L1246.47 62.4406L1260.01 39.3921C1284 58.5054 1306.33 77.6188 1309.2 82.6408C1308.99 88.0001 1299.75 113.522 1289 140.431L1288.96 140.393ZM1280.63 84.777L1257.97 130.312L1214.81 116.295L1245.35 64.277L1280.63 84.777ZM1203.11 131.773C1191.4 127.464 1174.49 121.092 1155.17 113.747L1159.08 105.764C1159.33 105.24 1159.08 104.64 1158.5 104.378C1158.33 104.303 1158.17 104.303 1158.04 104.303C1157.58 104.303 1157.17 104.528 1157 104.94L1153.04 112.922C1143.34 109.212 1133.05 105.314 1122.55 101.304L1131.42 80.8044L1145.88 86.8383C1146.17 86.9507 1146.5 86.9507 1146.79 86.8383C1147.09 86.7258 1147.34 86.5384 1147.46 86.2761L1159.79 60.6042L1227.73 89.8739L1203.15 131.773L1203.11 131.773ZM1095.68 90.9982C1071.94 81.8913 1048.58 72.8967 1029.37 65.4763L1031.46 49.9607L1100.27 73.0467L1095.68 90.9608L1095.68 90.9982ZM1149.42 122.854L1144 136.158L1068.03 106.176L1071.86 93.2094C1097.73 103.141 1125.34 113.709 1149.42 122.891L1149.42 122.854ZM1094.44 118.881L1084.23 146.427L1059.49 134.959L1067.4 108.2L1094.39 118.881L1094.44 118.881ZM1094.35 153.473L1063.9 213.848L1050.99 210.138L1025.37 201.256L1058.66 136.945L1094.35 153.51L1094.35 153.473ZM1037.75 207.74L1031.54 226.066L1011.46 243.343C1011.21 243.568 1011.05 243.905 1011.13 244.242L1014.38 265.305L996.383 264.705L994.551 249.902L1024.37 203.13L1037.79 207.777L1037.75 207.74ZM711.724 402.846C712.265 402.696 712.807 402.509 713.307 402.209C713.765 401.947 714.098 401.647 714.431 401.309C725.803 394.901 737.632 388.904 749.962 383.395C750.462 383.245 750.92 383.058 751.378 382.758C788.116 366.456 829.103 354.051 874.714 345.356C958.312 329.428 1037.29 338.722 1109.47 372.977C1189.16 410.754 1222.35 426.382 1233.22 431.479C1222.89 459.586 1207.69 513.404 1193.2 567.821C1193.2 567.858 1193.2 567.895 1193.15 567.933C1193.15 567.933 1193.15 568.008 1193.15 568.045C1191.7 573.48 1190.28 578.914 1188.82 584.348C1160 580.45 969.1 554.778 965.102 554.029C960.728 553.204 897.998 545.971 895.332 545.672C895.207 545.672 895.082 545.672 894.957 545.672L858.885 551.555L850.43 499.874C850.346 499.462 850.055 499.125 849.597 499.012L816.149 490.505L782.618 481.96L734.717 453.365L693.271 414.052C699.228 410.191 705.351 406.444 711.599 402.846L711.724 402.846ZM1221.39 568.72C1216.69 567.558 1210.48 566.209 1205.86 565.235C1209.4 552.005 1212.98 538.851 1216.48 526.146L1228.56 531.243L1221.39 568.72ZM1222.98 580.001C1223.81 580.3 1227.77 582.212 1231.93 584.236C1246.68 591.356 1275.17 605.073 1298 613.393L1290.58 631.532L1267.63 622.725C1267.3 622.575 1266.92 622.612 1266.59 622.8L1258.67 627.034L1193.78 610.919C1196.82 599.264 1199.94 587.309 1203.15 575.353C1211.52 577.152 1220.98 579.289 1222.98 580.001ZM1217.06 524.085C1224.44 497.588 1231.52 473.191 1237.64 454.227L1228.85 529.107L1217.06 524.122L1217.06 524.085ZM1110.31 739.953L1077.94 731.034L1079.86 701.577L1114.6 706.036C1115.22 706.111 1115.8 705.737 1115.89 705.137C1115.97 704.575 1115.55 704.05 1114.89 703.975L1079.98 699.515L1082.36 663.237L1135.63 668.484L1131.76 689.059L1125.38 722.751L1117.09 722.751C1116.6 722.751 1116.14 723.051 1115.97 723.501L1110.31 740.028L1110.31 739.953ZM1110.68 742.239L1131.17 749.772L1128.51 756.556C1121.18 753.97 1111.39 750.484 1100.14 746.512L1101.43 739.691L1110.64 742.239L1110.68 742.239ZM839.1 706.336C875.713 703.525 941.984 698.766 948.69 699.365C951.314 699.59 971.475 706.261 999.382 715.855L996.633 730.546L934.403 717.355C934.403 717.355 934.153 717.355 934.07 717.355L845.556 722.714L839.1 706.374L839.1 706.336ZM853.762 746.699L832.56 748.873L818.857 713.457L836.601 706.524L836.684 706.524L843.64 724.1L853.72 746.662L853.762 746.699ZM562.855 600.351L570.727 606.609C571.185 606.984 571.935 606.947 572.352 606.534C572.768 606.085 572.726 605.448 572.268 605.073L564.979 599.301L567.936 592.068C568.145 591.581 567.936 591.056 567.395 590.794L556.94 585.51L598.385 531.58C609.59 542.786 624.335 557.552 638.331 571.381L575.851 619.239C575.601 619.427 575.476 619.689 575.434 619.951C575.434 620.214 575.517 620.513 575.726 620.701L591.512 637.266L576.1 645.736L547.026 654.992C546.818 655.067 546.651 655.18 546.485 655.33L506.539 701.577L465.427 700.715L484.588 689.209C484.588 689.209 484.879 688.984 484.963 688.834L548.401 582.999L548.401 582.924L554.566 586.709C554.566 586.709 554.566 586.709 554.607 586.709L565.312 592.106L562.396 599.189C562.23 599.601 562.396 600.051 562.73 600.313L562.855 600.351ZM788.783 531.58L781.702 520.824L801.404 488.894L814.525 492.229L809.359 509.131C809.318 509.319 809.318 509.544 809.359 509.768L812.359 517.451C812.359 517.451 812.525 517.714 812.608 517.826L819.19 523.785L808.943 540.762C808.735 541.062 808.776 541.474 808.943 541.774L814.566 550.731L806.027 559.8L778.203 543.76L788.616 532.817C788.949 532.48 788.991 531.992 788.741 531.618L788.783 531.58ZM817.065 550.319L811.359 541.249L821.689 524.122C821.939 523.71 821.856 523.223 821.481 522.885L814.483 516.514L811.692 509.356L816.774 492.791L848.347 500.811L856.719 551.855L809.276 559.613L816.899 551.518C817.232 551.181 817.274 550.731 817.024 550.319L817.065 550.319ZM782.951 548.932L752.336 576.29C751.878 576.703 751.878 577.34 752.336 577.752C752.794 578.164 753.502 578.164 753.961 577.752L784.909 550.056L805.652 562.012C805.652 562.012 805.736 562.012 805.819 562.049C805.902 562.049 805.944 562.087 806.027 562.124C806.111 562.124 806.152 562.124 806.236 562.124C806.319 562.124 806.402 562.124 806.444 562.124C806.444 562.124 806.444 562.124 806.486 562.124L856.761 553.916L854.304 608.671L827.312 603.911C826.854 603.836 826.354 604.024 826.104 604.398L814.691 621.3L798.196 631.457L780.785 612.194C780.452 611.819 779.911 611.706 779.452 611.894L762.25 618.227L741.006 589.745C740.965 589.707 740.923 589.632 740.881 589.595L726.428 576.89L740.965 561.749C741.339 561.337 741.339 560.737 740.923 560.363L708.517 530.044C708.308 529.856 708.017 529.744 707.684 529.706C707.35 529.706 707.059 529.819 706.85 530.006L689.939 544.81L661.532 519.85L693.188 488.594L705.767 504.259C705.767 504.259 705.976 504.447 706.101 504.522L782.951 548.82L782.951 548.932ZM1054.45 577.452L1057.7 584.573C1057.86 584.91 1058.2 585.172 1058.61 585.21L1085.02 588.208L1083.44 612.194L1043.66 606.797C1043.66 606.797 1043.66 606.759 1043.66 606.722L1047.78 567.408C1050.24 567.746 1052.74 568.083 1055.24 568.42L1054.36 576.965C1054.36 576.965 1054.36 577.302 1054.45 577.452ZM1116.51 591.768L1116.51 615.604L1085.73 612.456L1087.31 588.47L1116.51 591.806L1116.51 591.768ZM1087.44 586.372L1088.31 572.88C1097.89 574.192 1107.39 575.466 1116.51 576.703L1116.51 589.67L1087.44 586.372ZM982.804 669.496C982.638 669.271 982.346 669.121 982.055 669.084L967.268 666.948C967.268 666.948 967.143 666.948 967.101 666.948C966.56 666.948 966.06 667.322 965.976 667.81C965.893 668.372 966.31 668.897 966.934 669.009L980.555 670.995L974.474 702.588L966.435 700.377C960.395 698.429 955.646 696.929 952.606 696.105L957.312 647.085L1080.15 663.05L1075.73 730.509L976.681 703.226L983.013 670.321C983.054 670.058 983.013 669.758 982.804 669.534L982.804 669.496ZM950.315 695.468C949.815 695.355 949.398 695.28 949.148 695.243C948.69 695.205 948.024 695.168 947.149 695.168C941.734 695.168 928.572 695.88 913.118 696.892L914.368 642.962L954.813 646.71L954.938 646.71L950.273 695.43L950.315 695.468ZM957.479 644.986L961.978 597.877L1083.27 614.292L1080.23 660.951L957.479 644.986ZM1085.6 614.555L1109.01 616.953L1104.93 663.425L1082.56 661.214L1085.6 614.555ZM1085.15 586.147L1059.57 583.261L1056.7 576.965L1057.53 568.795C1066.9 570.069 1076.48 571.343 1086.02 572.655L1085.15 586.184L1085.15 586.147ZM1041.41 606.534L1010.84 602.412L1020.88 563.81C1028.66 564.86 1036.95 565.984 1045.53 567.146L1041.41 606.534ZM1008.55 602.037L962.228 595.779L966.018 556.24C971.308 557.027 991.843 559.838 1018.58 563.436L1008.55 602L1008.55 602.037ZM955.188 644.686C955.188 644.686 955.188 644.686 955.146 644.686L854.97 635.392L856.595 610.132L859.135 553.692L895.291 547.77C898.914 548.183 954.813 554.629 963.685 555.94L955.188 644.724L955.188 644.686ZM611.506 624.074L593.428 636.141L578.225 620.176L594.969 607.359L611.506 624.111L611.506 624.074ZM596.761 605.972L618.17 589.557L632.916 609.758L613.38 622.8L596.761 605.935L596.761 605.972ZM593.886 638.428C593.886 638.428 593.886 638.428 593.928 638.428L634.165 611.594L676.235 669.346L599.426 697.079L577.975 647.197L593.845 638.465L593.886 638.428ZM635.457 609.458L619.92 588.208L639.872 572.917C648.078 581.05 655.992 588.845 662.656 595.329C675.319 607.621 688.148 617.778 699.436 626.735C713.89 638.165 726.344 648.022 730.468 656.567C730.551 656.716 730.635 656.866 730.718 657.054L683.983 676.13L635.415 609.495L635.457 609.458ZM719.221 604.623L739.757 591.918L760.333 619.502L734.55 642.925C733.884 642.175 733.217 641.426 732.467 640.639L719.18 604.586L719.221 604.623ZM724.761 575.541L691.605 546.384L707.642 532.33L738.507 561.225L724.761 575.541ZM659.865 518.538L633.79 496.651L666.322 465.733C666.322 465.733 666.405 465.658 666.405 465.583L691.647 487.095L659.824 518.501L659.865 518.538ZM659.157 520.787L738.257 590.307L717.181 603.349C716.764 603.611 716.556 604.098 716.722 604.548L728.635 636.891C722.72 631.307 715.348 625.498 707.1 618.939C695.979 610.17 683.4 600.201 671.153 588.283C652.368 569.994 623.752 541.437 605.549 523.223L632.166 498.15L659.116 520.787L659.157 520.787ZM548.109 656.866L575.892 648.022L597.302 697.791L554.524 713.944L549.359 703.113C549.192 702.738 548.776 702.476 548.318 702.476L509.372 701.652L548.068 656.866L548.109 656.866ZM599.26 699.365L677.568 671.07L682.608 678.003C682.9 678.416 683.525 678.603 684.066 678.378L731.676 658.965C734.467 664.774 740.381 677.104 747.921 692.882C698.936 712.782 624.835 742.539 577.225 761.615L555.482 715.893L599.26 699.365ZM746.421 663.425L766.248 656.454C766.831 656.229 767.123 655.63 766.915 655.105C766.748 654.693 766.29 654.43 765.832 654.43C765.707 654.43 765.54 654.43 765.415 654.505L745.547 661.514C743.464 657.166 741.964 654.056 741.173 652.407C739.923 649.783 738.174 647.197 736.05 644.574L762.583 620.476L779.619 614.18L797.155 633.593C797.53 634.005 798.196 634.118 798.696 633.78L816.316 622.949C816.316 622.949 816.566 622.762 816.649 622.65L827.77 606.197L854.304 610.882L852.679 635.729C847.389 639.215 800.904 669.758 797.822 672.12C796.614 672.907 781.285 679.278 758.542 688.535C753.752 678.491 749.587 669.833 746.505 663.387L746.421 663.425ZM854.803 637.453L912.077 642.775L910.786 697.079C890.084 698.429 865.883 700.19 850.68 701.352L854.803 637.453ZM1001.59 716.642C1029.33 726.162 1064.28 738.379 1097.18 749.997L1095.6 758.392L998.883 731.146L1001.59 716.642ZM1002.34 712.445L1099.27 739.166L1098.02 745.837C1069.53 735.793 1032.46 722.789 1002.34 712.482L1002.34 712.445ZM1133.88 690.446L1160.62 694.269C1159.46 698.916 1158.37 703.226 1157.37 707.123C1154.58 718.216 1152.25 727.436 1151.29 731.146L1127.72 723.126L1133.92 690.408L1133.88 690.446ZM1134.26 688.385L1137.96 668.747L1166.33 671.52C1164.45 678.94 1162.71 685.874 1161.08 692.207L1134.21 688.385L1134.26 688.385ZM1107.22 663.65L1111.31 617.215L1135.8 619.726L1133.59 643.337C1133.59 643.637 1133.67 643.899 1133.88 644.124C1134.09 644.349 1134.42 644.461 1134.71 644.461L1139.96 644.461C1140.5 644.461 1141 644.087 1141.09 643.599L1145.84 620.738L1178.49 624.074C1174.28 640.301 1170.37 655.705 1166.83 669.496L1107.18 663.65L1107.22 663.65ZM1118.84 615.866L1118.84 577.04C1133.71 579.026 1147.5 580.9 1159.04 582.474C1154.62 607.884 1153.17 616.391 1152.79 619.352L1118.84 615.866ZM1143.54 620.476L1139 642.325L1135.96 642.325L1138.09 619.914L1143.54 620.476ZM1181.87 657.279L1253.84 672.007L1246.51 683.213L1219.27 677.816L1178.45 670.92C1179.57 666.535 1180.74 662.001 1181.91 657.316L1181.87 657.279ZM1179.03 622.013L1155.04 619.577C1155.75 615.079 1159.04 595.928 1161.29 582.774C1173.66 584.46 1183.24 585.735 1188.32 586.409C1185.11 598.477 1182.03 610.47 1179.03 622.05L1179.03 622.013ZM691.48 415.326L732.384 454.115L698.936 479.824L676.027 457.6L679.151 443.958C679.234 443.659 679.151 443.321 678.901 443.096L668.279 431.778C675.777 426.044 683.483 420.573 691.48 415.326ZM666.53 433.128L676.777 444.071L673.653 457.75C673.569 458.087 673.653 458.425 673.944 458.687L698.02 482.035C698.436 482.448 699.145 482.485 699.603 482.11L734.133 455.539L781.577 483.872C781.577 483.872 781.785 483.984 781.91 484.022L799.113 488.406L779.369 520.449C779.161 520.787 779.161 521.161 779.369 521.499L786.367 532.142L776.287 542.748L707.559 503.097L695.854 488.594L730.885 493.578L736.758 501.936C736.758 501.936 737.049 502.235 737.216 502.31L755.752 510.443C756.21 510.668 756.793 510.555 757.126 510.218L769.789 497.513C770.205 497.101 770.164 496.464 769.747 496.089L755.127 483.31L746.879 476.114C746.421 475.702 745.671 475.739 745.255 476.114C744.797 476.526 744.838 477.201 745.255 477.575L752.628 484.022L744.797 490.917C744.339 491.33 744.339 491.967 744.797 492.379C745.255 492.791 745.963 492.791 746.421 492.379L754.294 485.446L760.75 491.067L750.42 498.9C749.92 499.275 749.879 499.912 750.295 500.362C750.712 500.811 751.42 500.849 751.919 500.474L762.416 492.491L767.331 496.801L755.96 508.194L738.507 500.549L732.509 492.042C732.342 491.779 732.051 491.629 731.718 491.554L693.771 486.158L648.786 447.781C654.534 442.759 660.407 437.887 666.447 433.202L666.53 433.128ZM626.459 469.106C633.124 462.172 640.038 455.576 647.203 449.168L664.822 464.196C664.822 464.196 664.697 464.234 664.656 464.309L631.291 495.977L604.008 521.649C598.593 516.214 594.22 511.83 591.471 509.094C604.425 493.278 616.296 479.599 626.418 469.106L626.459 469.106ZM584.556 517.676C587.555 520.674 591.762 524.909 596.844 530.006L555.024 584.423L540.029 575.204C555.524 554.591 570.602 535.028 584.598 517.676L584.556 517.676ZM538.696 576.928L546.651 581.8C546.651 581.8 546.485 581.912 546.402 582.024L523.784 619.726L512.204 612.643C521.076 600.538 529.948 588.545 538.696 576.89L538.696 576.928ZM510.913 614.442L522.701 621.6L483.088 687.673L461.803 700.452L453.348 694.643C471.592 668.784 491.252 641.313 510.913 614.442ZM446.85 793.92C446.517 794.07 446.267 794.408 446.225 794.745L445.392 801.791L429.022 802.915L404.613 764.688C409.862 757.08 415.485 748.948 421.441 740.403L440.019 753.033L460.221 787.924L446.892 793.92L446.85 793.92ZM503.873 803.927L497.459 794.295C497.167 793.883 496.626 793.696 496.084 793.845L470.634 801.491L462.762 787.924L441.893 751.871C441.893 751.871 441.685 751.609 441.56 751.534L422.649 738.679C431.813 725.487 441.727 711.321 452.098 696.63L461.054 702.776C461.22 702.888 461.429 702.963 461.637 702.963C461.637 702.963 461.637 702.963 461.679 702.963L505.789 703.9L502.249 731.408C502.249 731.408 502.249 731.783 502.332 731.933L531.615 792.496L503.873 803.927ZM553.566 783.464C553.566 783.464 553.566 783.464 553.524 783.464L533.781 791.597L504.665 731.334L508.205 703.9L547.651 704.725L575.601 763.526L579.766 774.77L553.649 783.427L553.566 783.464ZM590.762 798.268L578.017 763.751C595.927 756.593 689.231 719.191 748.795 694.981C753.836 705.549 759.584 717.504 765.54 730.022L590.721 798.305L590.762 798.268ZM759.375 690.671C782.368 681.301 798.321 674.668 799.238 673.956C802.07 671.782 842.932 644.874 852.471 638.652L848.389 701.727C841.433 702.251 836.767 702.589 835.893 702.663C835.643 702.663 835.393 702.738 835.185 702.813L776.203 725.862C770.205 713.307 764.457 701.277 759.375 690.671ZM778.036 729.685L816.774 714.544L830.394 749.735L794.947 765.026C789.366 753.37 783.618 741.34 778.036 729.685ZM812.567 802.09C807.485 791.409 801.737 779.417 795.781 766.937L831.103 751.684L847.889 792.534L812.567 802.053L812.567 802.09ZM850.097 791.972L833.352 751.159L894.291 744.863L903.954 777.43L850.097 791.972ZM951.856 764.501L906.162 776.831L896.623 744.638L916.45 742.577L952.356 749.435L951.856 764.463L951.856 764.501ZM954.188 764.426L954.73 748.648C954.73 748.161 954.355 747.711 953.814 747.599L916.742 740.515C916.742 740.515 916.575 740.515 916.492 740.515C916.45 740.515 916.409 740.515 916.367 740.515L856.095 746.737L846.348 725L933.987 719.678L996.175 732.87L989.136 770.572L954.147 764.426L954.188 764.426ZM1049.99 781.253L991.427 770.984L998.466 733.432L1095.19 760.678L1091.56 779.717L1050.03 781.253L1049.99 781.253ZM1119.93 778.667L1093.89 779.642L1097.48 760.828C1097.48 760.828 1097.81 760.528 1097.85 760.341C1097.98 760.041 1097.85 759.741 1097.73 759.479L1099.35 750.972C1108.81 754.307 1118.09 757.605 1126.97 760.753L1119.93 778.667ZM1132.46 778.217L1122.43 778.592L1129.13 761.54C1131.55 762.402 1133.96 763.264 1136.34 764.089L1132.51 778.217L1132.46 778.217ZM1137.63 760.079C1135.76 759.404 1133.42 758.579 1130.63 757.605L1133.3 750.859L1140.88 753.632C1139.75 755.919 1138.63 758.092 1137.63 760.079ZM1141.8 751.721L1112.43 740.928L1117.89 725.075L1126.09 725.075L1150.58 733.395C1149.58 735.943 1145.67 743.963 1141.8 751.721ZM1269.25 795.307L1216.35 788.336L1270.5 775.819L1269.3 795.307L1269.25 795.307ZM1338.57 804.451L1271.55 795.607L1272.8 775.669L1344.81 786.313L1338.57 804.451ZM1353.31 760.603L1317.45 741.302L1323.07 717.28L1346.77 729.122C1347.31 729.385 1348.02 729.235 1348.35 728.71C1348.65 728.223 1348.48 727.586 1347.9 727.286L1323.49 715.106C1323.49 714.731 1323.4 714.394 1323.2 714.056L1315.07 702.289L1323.9 689.359L1369.64 717.429L1360.18 730.846C1360.02 731.071 1359.93 731.296 1359.85 731.558L1353.39 760.641L1353.31 760.603ZM1405.79 715.556L1374.01 761.165L1358.68 757.642L1364.22 732.72L1385.51 702.551L1405.75 715.556L1405.79 715.556ZM1406.17 665.598L1370.81 715.668L1325.03 687.56L1357.77 639.552C1373.1 647.385 1389.92 656.417 1406.17 665.561L1406.17 665.598ZM1353.73 637.528L1310.33 701.202C1309.87 701.876 1309.87 702.738 1310.33 703.376L1318.74 715.556L1312.57 741.94C1312.37 742.802 1312.82 743.701 1313.66 744.151L1352.19 764.913L1345.52 784.326L1271.92 773.458L1271.84 773.458C1271.84 773.458 1271.8 773.458 1271.75 773.458C1271.67 773.458 1271.55 773.458 1271.46 773.458L1238.6 781.066L1236.06 759.029C1236.02 758.579 1235.6 758.205 1235.1 758.092L1225.1 756.481L1222.64 737.667C1222.56 737.18 1222.14 736.805 1221.6 736.768L1205.65 735.531L1205.57 735.531C1204.98 735.531 1204.48 735.943 1204.4 736.468C1204.36 737.03 1204.82 737.555 1205.44 737.592L1220.44 738.754L1222.89 757.493C1222.94 757.942 1223.35 758.317 1223.85 758.392L1233.85 759.966L1236.35 781.553L1210.48 787.549L1144.25 778.817L1148.13 764.538C1150.13 760.603 1160.16 740.628 1161.75 736.355C1162.08 735.419 1163.16 731.259 1167.7 713.232L1197.94 713.232L1201.65 724.325C1201.73 724.625 1201.98 724.85 1202.28 724.962C1202.57 725.075 1202.94 725.075 1203.23 724.962L1216.65 719.528C1217.23 719.303 1217.48 718.666 1217.23 718.142C1216.98 717.617 1216.27 717.392 1215.69 717.617L1203.44 722.564L1199.86 711.845C1199.69 711.396 1199.28 711.096 1198.74 711.096L1168.12 711.096C1168.25 710.571 1168.37 710.121 1168.5 709.597C1170.99 699.74 1174.12 687.26 1177.74 673.094L1217.15 679.765L1209.86 692.432L1190.36 689.621C1189.74 689.546 1189.16 689.921 1189.03 690.483C1188.95 691.046 1189.36 691.57 1189.99 691.683L1210.32 694.606C1210.82 694.681 1211.31 694.456 1211.52 694.044L1219.52 680.177L1245.14 685.237L1240.6 692.207C1240.26 692.695 1240.47 693.332 1241.01 693.631C1241.56 693.931 1242.26 693.744 1242.6 693.257L1256.09 672.644L1285.33 678.641C1285.96 678.79 1286.58 678.416 1286.71 677.854C1286.83 677.291 1286.46 676.729 1285.83 676.617L1182.24 655.442C1185.61 642.175 1189.28 627.934 1193.15 613.168L1258.42 629.396C1258.72 629.47 1259.05 629.433 1259.34 629.283L1267.17 625.086L1290.71 634.118C1291 634.23 1291.33 634.23 1291.62 634.118C1291.91 634.005 1292.12 633.78 1292.25 633.518L1300.04 614.405C1302.83 615.379 1305.53 616.316 1308.08 617.103C1317.36 619.951 1334.11 627.597 1353.73 637.491L1353.73 637.528ZM1338.52 618.302C1327.53 613.168 1318.2 609.27 1311.82 607.284C1305.95 605.485 1299.33 603.049 1292.41 600.276L1299.29 587.946C1299.58 587.421 1299.33 586.821 1298.79 586.559C1298.62 586.484 1298.45 586.447 1298.29 586.447C1297.87 586.447 1297.45 586.672 1297.25 587.009L1290.33 599.414C1270.75 591.469 1249.39 581.162 1237.35 575.353C1231.06 572.318 1228.43 571.044 1227.23 570.631C1226.43 570.369 1225.14 569.994 1223.56 569.582L1230.64 532.48L1353.48 584.535C1347.98 597.577 1342.11 610.545 1338.52 618.34L1338.52 618.302ZM1354.31 582.549L1231.02 530.306L1235.89 488.856L1343.48 532.892L1336.23 547.995C1335.98 548.482 1336.23 549.082 1336.78 549.344L1362.64 561.487C1360.35 567.821 1357.44 575.166 1354.35 582.587L1354.31 582.549ZM1365.18 553.916C1364.64 555.64 1364.02 557.477 1363.35 559.463L1338.77 547.958L1345.56 533.791L1367.68 542.861C1367.02 546.871 1366.18 550.619 1365.14 553.954L1365.18 553.916ZM1370.47 488.744C1370.64 494.89 1371.14 520.374 1368.06 540.687L1236.14 486.682L1241.18 443.659L1370.47 488.744ZM1237.76 422.147C1230.06 418.549 1212.69 410.379 1179.24 394.563L1197.28 358.061L1261.72 379.123L1237.76 422.184L1237.76 422.147ZM1249.97 423.496L1261.38 402.958L1354.39 405.544L1249.97 423.496ZM1415.29 377.699L1421.08 382.308L1369.35 402.958L1364.81 403.745L1262.51 400.935L1273.67 380.847L1415.29 377.736L1415.29 377.699ZM1404.13 347.567L1391.01 350.078C1390.47 350.19 1390.09 350.603 1390.09 351.09L1390.09 376.162L1356.14 376.912L1356.14 298.472C1358.52 296.336 1360.85 294.162 1363.18 292.026L1363.93 325.568C1363.93 325.98 1364.22 326.355 1364.64 326.505L1371.89 329.316L1370.06 355.025C1370.06 355.587 1370.51 356.112 1371.14 356.112C1371.76 356.112 1372.35 355.7 1372.39 355.137L1374.14 330.178L1393.01 337.523C1393.51 337.711 1394.13 337.561 1394.42 337.148L1398.84 331.19L1407.21 332.126L1404.13 347.605L1404.13 347.567ZM1407.63 330.065C1407.63 330.065 1407.54 330.065 1407.5 330.065L1398.42 329.053C1397.96 329.016 1397.55 329.166 1397.3 329.503L1393.01 335.275L1366.18 324.856L1365.43 289.927C1373.85 282.207 1381.89 274.674 1389.05 267.778L1390.13 304.019C1390.13 304.581 1390.67 305.03 1391.3 305.03L1399.92 305.03L1398.38 318.897C1398.34 319.459 1398.76 319.946 1399.38 320.021L1409.34 321.37L1407.63 330.028L1407.63 330.065ZM1430.08 321.408L1410.83 319.497L1400.84 318.147L1402.3 305.18L1428.95 308.066C1429.16 308.066 1429.37 308.066 1429.54 307.991L1430.12 321.445L1430.08 321.408ZM1429.41 306.042C1429.41 306.042 1429.29 305.967 1429.16 305.967L1401.34 302.969C1401.34 302.969 1401.25 302.969 1401.21 302.969L1392.42 302.969L1391.3 265.604C1391.76 265.192 1392.17 264.78 1392.59 264.33L1427.62 264.33L1429.37 306.005L1429.41 306.042ZM1426.25 230.901L1427.58 262.269L1394.8 262.269C1405.67 251.663 1413.75 243.156 1416.71 238.696C1419.21 234.873 1421.12 230.226 1422.66 224.792L1426.29 230.938L1426.25 230.901ZM1437.28 -16.9736C1431.83 31.1846 1426 82.2285 1422.79 108.65C1422.54 110.786 1422.29 112.885 1422.04 114.984L1381.72 118.919L1380.8 118.994L1394.63 -21.8831C1394.63 -21.8831 1394.63 -22.2204 1394.51 -22.3703L1437.28 -16.8986L1437.28 -16.9736ZM1371.64 -25.3309L1392.59 -22.6702C1392.59 -22.6702 1392.34 -22.3328 1392.3 -22.1079L1378.47 119.144L1350.48 121.092L1371.64 -25.3309ZM1369.35 -25.6308L1362.27 23.2394L1284.21 0.378362L1299.08 -35.7122L1369.35 -25.6308ZM1276.17 -39.0102C1276.17 -39.0102 1276.04 -38.8977 1276.04 -38.8602L1262.34 -0.296259C1262.13 0.265875 1262.47 0.828131 1263.09 1.01551C1263.71 1.20289 1264.34 0.903021 1264.55 0.340887L1278.25 -38.2231C1278.25 -38.2231 1278.29 -38.5604 1278.25 -38.7103L1296.7 -36.0494L1281.58 0.678228C1281.46 0.940557 1281.5 1.24036 1281.63 1.50269C1281.75 1.76502 1282 1.95246 1282.29 2.02741L1361.93 25.3382L1353.77 81.7039L1318.7 77.5064C1312.16 68.1371 1288.54 48.4241 1265.42 30.1353L1274.88 14.0575L1297 27.5494L1295.45 34.8948C1295.37 35.2321 1295.5 35.6069 1295.79 35.8693L1303.58 42.3903C1304.04 42.765 1304.79 42.7651 1305.2 42.3528C1305.62 41.9406 1305.62 41.266 1305.16 40.8912L1297.83 34.7824L1299.41 27.3245C1299.49 26.9122 1299.29 26.5 1298.91 26.2752L1275.09 11.734C1275.09 11.734 1274.67 11.5466 1274.42 11.5466C1274.34 11.5466 1274.21 11.5466 1274.13 11.5466C1273.79 11.6215 1273.55 11.809 1273.38 12.0713L1263.59 28.7486C1260.22 26.0877 1256.88 23.5018 1253.63 20.9533C1253.55 20.9158 1253.51 20.8409 1253.43 20.8035C1253.01 20.5037 1211.48 -9.17828 1209.98 -44.4818C1209.94 -45.831 1209.94 -47.1802 1209.94 -48.5293L1276.09 -39.0476L1276.17 -39.0102ZM1209.11 -11.0521C1222.52 11.6965 1244.1 27.3994 1246.26 28.936C1250.18 31.9716 1254.18 35.1197 1258.13 38.2303L1228.77 88.2998L1196.15 74.2459L1204.23 50.4104C1204.44 49.8483 1204.07 49.2861 1203.48 49.0987C1203.36 49.0987 1203.28 49.0612 1203.15 49.0612C1202.65 49.0612 1202.19 49.3611 1202.03 49.8108L1194.03 73.3464L1175.78 65.4763L1192.57 23.4268C1192.74 23.0146 1192.57 22.5274 1192.2 22.2651L1184.16 16.4186L1209.11 -11.0147L1209.11 -11.0521ZM1158.12 5.06306L1181.82 17.393L1190.07 23.3894L1173.62 64.5393L1159.58 58.5055C1159.58 58.5055 1159.25 58.3931 1159.08 58.3931C1158.96 58.3931 1158.79 58.3931 1158.66 58.468C1158.37 58.5805 1158.12 58.7679 1158 59.0302L1145.67 84.7395L1132.13 79.0805L1158.08 5.06306L1158.12 5.06306ZM1156.04 4.08863L1148.08 26.7623L1110.31 16.9432L1118.14 -10.49L1156.04 4.05116L1156.04 4.08863ZM1095.06 -53.2515L1154.04 -38.8602L1137.17 -5.39312L1117.8 -12.8136L1088.15 -22.6326L1095.1 -53.1766L1095.06 -53.2515ZM1044.91 -49.1664L1088.81 -36.1994L1085.65 -22.2579L1071.98 23.4644L1035.5 20.0164L1044.87 -49.2039L1044.91 -49.1664ZM1033.54 34.9699L1060.28 40.1042C1060.9 40.2166 1061.53 39.8793 1061.65 39.3172C1061.78 38.755 1061.4 38.1929 1060.78 38.0805L1033.83 32.9086L1035.29 22.1526L1072.78 25.6755C1073.36 25.7504 1073.86 25.4132 1074.03 24.926L1087.6 -20.6089L1116.01 -11.202L1101.85 38.3428C1101.81 38.5302 1101.81 38.755 1101.85 38.9424L1106.18 50.1855L1100.77 71.3227L1031.75 48.1618L1033.54 34.9699ZM989.969 16.0438L1032 29.0484L1030.16 42.6153L987.22 29.3857C988.178 24.8135 989.094 20.3538 990.01 16.0814L989.969 16.0438ZM986.761 31.447L1029.87 44.7139L1027.12 64.9516C1001.96 55.245 984.512 48.4991 983.929 48.2742C983.721 48.1993 983.512 48.1243 983.262 48.0868C984.47 42.3903 985.637 36.8438 986.761 31.4845L986.761 31.447ZM981.097 58.5055C989.927 61.9159 1027.29 76.3822 1069.69 92.6847L1065.86 105.652L978.431 71.0979C979.347 66.8629 980.222 62.6655 981.097 58.5055ZM977.973 73.1966L1065.28 107.676L1057.41 134.322L973.266 95.2706C974.848 87.8501 976.431 80.4671 978.014 73.1966L977.973 73.1966ZM972.766 97.4068L1056.61 136.308L1023.21 200.806L954.897 177.121C960.478 153.548 966.684 125.402 972.766 97.4068ZM969.85 55.7697C967.434 67.1627 964.977 78.7432 962.477 90.3237L896.332 59.6298L905.496 39.2797C932.82 46.925 956.729 52.6966 969.808 55.7697L969.85 55.7697ZM903.288 38.6801L894.249 58.693L894.124 58.693C894.124 58.693 893.874 58.543 893.749 58.543L879.837 56.6692C879.837 56.6692 879.712 56.6692 879.67 56.6692C879.337 56.6692 879.046 56.7816 878.796 57.0064L863.759 72.1098L829.895 45.8757C840.016 36.9561 849.388 28.5237 854.553 23.8391C870.882 29.2733 887.585 34.2952 903.246 38.6801L903.288 38.6801ZM788.116 -2.91959C805.861 6.29977 828.645 15.107 852.263 23.0521C834.352 39.2797 800.404 69.4489 790.324 75.8575C790.324 75.8575 790.282 75.8574 790.241 75.8949C789.366 76.4571 788.658 76.8319 788.158 76.9818C785.909 77.6939 758.334 88.4123 719.888 103.441L698.02 44.564L764.957 16.5685C764.957 16.5685 765.04 16.5311 765.082 16.4936C765.165 16.4936 765.207 16.4187 765.249 16.3812C765.249 16.3812 765.29 16.3812 765.332 16.3437L786.075 -4.00638C786.783 -3.63163 787.45 -3.29435 788.158 -2.91959L788.116 -2.91959ZM783.951 -5.05576L764.166 14.3199L732.801 -0.483492L738.049 -25.8556C752.711 -20.1966 767.831 -13.3008 783.951 -5.09323L783.951 -5.05576ZM735.883 -26.6427L730.385 -0.071382C730.301 0.378325 730.551 0.828093 730.968 1.05295L761.791 15.5941L697.229 42.5777L677.36 -10.9023L684.608 -12.7386C685.857 -13.0384 686.565 -14.2002 686.19 -15.3246C685.899 -16.224 684.982 -16.8611 683.983 -16.8611C683.775 -16.8611 683.566 -16.8611 683.358 -16.7862L675.944 -14.9123L665.988 -44.7442C689.398 -41.5586 712.016 -35.7121 735.841 -26.6801L735.883 -26.6427ZM615.671 -47.6298C632.374 -47.8172 648.119 -46.9928 663.531 -45.044L673.778 -14.3127L607.215 2.58957L588.471 -46.5431C598.302 -47.1427 607.507 -47.5549 615.713 -47.6298L615.671 -47.6298ZM586.056 -46.3931L590.679 -34.3255L497.334 -18.585L494.085 -37.3236C522.826 -40.8465 556.94 -44.5193 586.056 -46.4306L586.056 -46.3931ZM432.604 -29.1162C437.769 -29.8657 461.637 -33.3136 491.794 -37.0238L495.043 -18.2103L432.313 -7.64168L432.604 -29.1536L432.604 -29.1162ZM432.313 -5.46804L450.349 -8.50368C450.974 -4.45614 451.64 0.0785325 452.348 4.61326L432.146 6.44975L432.313 -5.4305L432.313 -5.46804ZM432.146 8.51097L452.681 6.63713C454.472 18.7423 456.139 30.1727 456.139 31.1471C456.139 31.7093 456.638 32.1965 457.305 32.1965C457.971 32.1965 458.471 31.7467 458.471 31.1471C458.471 29.9479 456.638 17.4306 454.972 6.44975L498.625 2.47715L505.623 43.1024L458.388 47.1874L431.646 44.7889L432.105 8.51097L432.146 8.51097ZM430.147 -28.9287C430.147 -28.9287 430.23 -28.9287 430.314 -28.9287L430.022 -7.56673L393.284 -10.2276L395.741 -31.5147L430.105 -28.9663L430.147 -28.9287ZM333.719 -36.1244L393.45 -31.6646L390.993 -10.3775L361.669 -12.4763L330.22 -14.7249L333.761 -36.0869L333.719 -36.1244ZM273.238 -43.6198L293.94 -39.1226C293.94 -39.1226 294.107 -39.1226 294.19 -39.1226C294.398 -39.1226 294.607 -39.0476 294.815 -39.0101L331.428 -36.2743L327.888 -14.9122L267.907 -19.2221C270.281 -30.203 272.114 -38.5603 273.197 -43.5823L273.238 -43.6198ZM267.49 -17.1984L327.555 -12.8886L320.973 26.9498L259.243 20.6536C262.367 6.18743 265.158 -6.62977 267.449 -17.2358L267.49 -17.1984ZM258.826 22.7523L320.64 29.0484L319.89 33.6207L314.142 68.5119L312.143 80.5046L307.269 110.187L302.354 139.906L297.689 168.126C284.901 175.509 275.529 180.644 273.363 181.206C270.656 181.093 250.662 178.245 225.962 174.61C237.583 120.493 249.663 64.8392 258.826 22.5275L258.826 22.7523ZM225.087 178.92C249.246 182.48 271.073 185.591 273.53 185.591C275.321 185.591 284.152 180.981 296.189 174.123L288.067 200.806L257.16 210.963C257.16 210.963 257.119 210.963 257.077 210.963L240.624 216.359C240.624 216.359 240.582 216.359 240.541 216.359L215.257 224.679C218.423 209.801 221.755 194.435 225.087 178.882L225.087 178.92ZM214.757 227.115L239.624 218.945L233.001 269.652L206.26 266.879C208.926 254.286 211.8 240.945 214.715 227.115L214.757 227.115ZM205.843 268.94L233.876 271.863L247.122 273.25L264.991 275.086L248.163 301.695C248.163 301.695 248.038 301.92 248.038 302.032L228.211 409.142L175.478 426.082C179.685 401.834 184.017 377.024 187.016 360.084C189.14 348.167 196.346 313.463 205.802 268.94L205.843 268.94ZM110.707 299.671C107.874 292.626 104.376 286.442 101.252 280.97C94.4621 269.015 91.1714 262.569 97.4194 258.147C106.292 251.813 179.393 235.51 202.261 230.488C199.637 242.706 197.138 254.511 194.763 265.717L173.604 263.506C172.937 263.431 172.396 263.843 172.312 264.405C172.229 264.967 172.687 265.492 173.312 265.567L194.305 267.741C186.558 304.318 180.31 334.225 177.186 350.228L126.077 342.545C121.703 329.578 115.58 311.851 110.707 299.671ZM109.791 508.044L104.126 397.262L131.45 360.084C131.659 359.822 131.7 359.522 131.575 359.223C131.534 359.073 129.618 353.189 126.785 344.794L176.728 352.289C176.269 354.725 175.853 356.824 175.561 358.436C167.855 401.684 151.652 496.202 150.653 502.086C138.656 506.208 127.118 510.181 116.288 513.891L109.707 508.044L109.791 508.044ZM215.923 490.842L231.502 535.665L75.2598 585.81L51.3508 566.209L46.0191 549.157C65.5962 542.449 140.114 516.889 215.923 490.805L215.923 490.842ZM49.5597 616.728L40.1877 587.646L42.0621 572.543C42.0621 572.543 42.2287 572.73 42.312 572.805L90.0885 611.969L55.3079 615.941L49.5597 616.728ZM86.6312 752.546L46.8106 641.201L56.3075 617.965L92.3378 613.843L113.289 631.045C115.164 635.842 121.87 652.744 123.286 655.967C124.328 658.291 137.948 676.392 153.61 696.892L134.533 712.295C134.116 712.632 134.033 713.157 134.283 713.569L147.529 735.831L123.994 751.684C123.994 751.684 123.744 751.871 123.703 751.983L110.207 772.971L86.5896 752.583L86.6312 752.546ZM108.249 776.081L99.7937 789.236L90.505 797.406L82.3826 788.261L89.8802 771.209L108.249 776.044L108.249 776.081ZM87.6309 770.647L80.6748 786.425L66.0544 770.01L69.9699 766L87.6309 770.647ZM67.554 765.325L64.6382 768.324L60.223 763.377L67.554 765.325ZM18.0697 747.261L33.3982 736.543L53.85 759.516L21.7769 751.047C20.5273 749.772 19.3193 748.536 18.1114 747.261L18.0697 747.261ZM24.6093 753.97L56.3492 762.365L62.9721 769.823L50.2262 779.642C41.9371 771.472 33.2316 762.777 24.6093 754.007L24.6093 753.97Z" fill="url(#paint0_linear_112_2333)" fill-opacity="0.2"/>
<defs>
<linearGradient id="paint0_linear_112_2333" x1="719.867" y1="-2.66193" x2="719.867" y2="672.625" gradientUnits="userSpaceOnUse">
<stop stop-color="#007F94" stop-opacity="0.2"/>
<stop offset="1" stop-color="white"/>
</linearGradient>
</defs>
</svg>
