<svg width="1440" height="807" fill="none" xmlns="http://www.w3.org/2000/svg"><path d="m.2 792.271 9.33-3.972 16.537 18.589h2.958l-17.37-19.489 21.493-9.144a6778.653 6778.653 0 0 0 16.578 16.378l-17.869 12.255h3.832l15.662-10.719a2137.3 2137.3 0 0 0 11.038 10.719h15.87a1093.544 1093.544 0 0 0-8.664-8.32l11.288-8.62 7.956 8.919-9.164 8.021h3.332l7.29-6.409 5.706 6.409h2.958l-6.998-7.871 8.955-7.87 19.411 9.819-4.374 5.922h2.791l17.286-23.499 19.077 5.022s.25.075.417.038l33.739-1.087 3.374 19.488h2.333l-3.374-19.563 21.743-.712 3.54 11.58-3.873 8.695h2.499l3.665-8.245c.084-.225.125-.45.042-.674l-3.707-12.106 10.996-9.331c14.412 9.069 33.073 20.35 49.818 30.356h20.993a5545.768 5545.768 0 0 1-16.12-9.594l74.935-88.671s0-.038.041-.075v-.075l36.822-57.228 80.558-118.915 88.971-122.588c2.791-1.761 30.574-19.226 38.072-24.735 5.831-4.272 27.324-26.046 38.321-37.289a9101.658 9101.658 0 0 1 22.451-7.346l40.57 56.028c-31.531 18.514-59.522 40.513-84.264 66.148-10.955 11.355-23.91 26.384-38.113 43.848-.125.15-.25.262-.334.412-75.101 92.419-184.774 252.484-217.097 300.118h13.579a7250.109 7250.109 0 0 1 27.533-40.176l24.117 37.852c.208.337.667.562 1.083.525l18.078-1.237c.541-.038.999-.412 1.083-.937l.874-7.346 12.788-5.734 7.789 13.492c.25.45.833.675 1.375.525l25.533-7.645 6.457 9.706c.291.45.916.637 1.457.412l28.658-11.805 6.04 12.48h2.541l-6.457-13.342 18.703-7.72L563.271 807h2.499l-10.288-21.849 24.909-8.245 8.247 22.336L568.769 807h11.622l187.024-73.043a31658.801 31658.801 0 0 0 17.036 35.603l-103.676 37.328h6.207l98.302-35.529c6.04 12.63 11.829 24.773 16.953 35.529h12.621c-.458-.937-.917-1.912-1.375-2.849l35.197-9.519 5.082 12.368h2.458l-5.332-12.968 100.885-27.245-.917 26.796h-.125L919.2 806.85h5.415l26.158-11.093-.375 11.093h2.333l1.374-40.363 95.555 16.79h.25l70.81-2.624h.17l10.99-.412-7.25 26.609h11.92l7.08-26.084 194.31 25.709-.12.413h19.24l-13.79-1.837 8.5-24.735 17.24 5.884 1.17 10.381c.04.487.5.862 1.04.937l19.45 1.762c.63.037 1.21-.375 1.25-.937.09-.562-.41-1.087-1.04-1.125l-18.49-1.686-1.17-10.194c-.04-.375-.33-.712-.75-.862l-18.07-6.146 4.74-13.792s.05-.15.05-.225l1.04-4.647 16.03 3.673c.5.112 1-.075 1.25-.45l32.78-47.109c.34-.449.21-1.086-.29-1.386l-21.24-13.642 23.28-32.98c10.42 5.922 20.54 11.843 29.79 17.465v-12.443c-7.5-4.46-15.46-9.107-23.62-13.754l23.62-33.467v-7.758l-27.58 39.014c-23.95-13.529-49.36-26.946-69.69-36.653 3.09-6.746 8-17.539 12.92-28.97l68.1 26.722c.58.224 1.25 0 1.54-.525.25-.525 0-1.124-.58-1.387l-25.16-9.856 1.79-51.531 6.83-4.947c.5-.375.59-1.012.17-1.462-.21-.262-.58-.375-.92-.375-.25 0-.5.075-.71.225l-7.24 5.247c-.25.187-.42.487-.42.787l-1.79 51.194-40.78-16.003c5.29-12.405 10.46-25.297 13.25-34.292 7.12-23.236 5.49-65.997 5.41-67.796 0-.824-.62-1.574-1.46-1.874l-131-45.684c1.09-3.074 2.13-5.922 3.13-8.47l1.66-3.036 122.26-21.025 1.45.862c6.34 18.064 42.07 119.74 49.15 139.228a43.487 43.487 0 0 0 4.5 8.957l-9.91 12.592c-.17.225-.25.488-.21.787.04.263.21.525.46.675l13.37 8.507c.54.338 1.25.225 1.63-.262.37-.487.25-1.124-.3-1.462l-12.41-7.907 8.71-11.019c4.12 5.66 9.16 10.119 13.87 13.53v-2.774c-6.75-5.134-14-12.554-17.54-22.261-6.79-18.739-40.11-113.593-48.28-136.829l55.36 32.23-13.29 21.774c-.29.488-.08 1.125.46 1.424.54.263 1.25.075 1.59-.412l13.2-21.624 8.5 4.947v-4.947l-64.98-37.852 64.98-25.934v-4.573l-16.5 6.559-6.95-5.509c-.21-.187-.55-.262-.8-.262l-23.28.524v-24.173l13-2.473c.45-.075.83-.412.91-.825l5.38-26.946 28.24 2.811v-2.099l-7.5-.749-3.87-91.032s-.05-.3-.13-.45l-4.96-8.432c3.34-13.755 4.5-32.043 5.96-54.53.04-.674.08-1.424.13-2.098 3.49-.713 6.99-1.387 10.37-2.062v-10.681c-3.13.637-6.38 1.275-9.67 1.949.3-4.272.63-8.657.96-13.117l8.71-1.724v-2.136l-8.54 1.686c.58-7.42 1.29-15.14 2.21-23.011l6.33-.637v-2.098l-6.08.599c.16-1.349.29-2.661.45-4.047 1.46-11.805 3.42-28.52 5.63-47.709v-102.2c-.79 6.896-1.59 13.942-2.38 21.1l-66.73-8.508-37.4-5.359v-23.798h-2.33v23.46l-60.9-8.731 3.58-14.729h-2.37l-3.5 14.391-57.82-8.282c.09-2.061.3-4.085.55-6.109h-11.67a78.597 78.597 0 0 0-.41 12.63c.45 11.168 4.24 21.662 9.45 31.031l-25.7 28.258-24.2-12.592h-.08l-.04-.038-18.62-7.158 17.41-34.517V-39.385l1.41-17.24h-2.33l-1.29 15.816-59.11-14.391.34-1.424h-2.38l-4.2 18.438-44.03-13.004 1.12-5.434h-2.33l-1.25 6.033-10.5 77.578-41.858-12.93c5.415-26.046 9.289-45.272 10.328-50.481 3.67-4.985 8.92-12.068 14.87-20.2h-13.91c-1.874 2.548-3.749 5.059-5.54 7.532l-3.832-7.532h-12.746l9.622 18.888a10593 10593 0 0 1-17.203 83.237 1608.669 1608.669 0 0 1-62.105-15.965l8.414-18.664s.083-.225.083-.337c0-.188.958-18.14 0-29.157-.166-1.912-2.083-6.934-5.123-13.98v-.037c-2.833-6.521-6.665-14.766-11.08-23.985h-2.541c4.332 9.107 8.206 17.314 11.08 23.835l-25.784 9.894c-.583.225-.874.825-.624 1.35.25.524.916.786 1.499.561l25.7-9.856c2.708 6.259 4.416 10.718 4.541 12.405.874 10.343.083 26.834 0 28.745l-8.414 18.663a1186.818 1186.818 0 0 1-26.075-7.607l-28.866-61.163 42.32-16.79h-5.749l-37.488 14.841-6.997-14.841h-2.5l36.364 77.016c-30.74-9.444-62.147-20.613-84.64-32.268l14.204-13.942a.937.937 0 0 0 .25-1.012l-10.497-29.794h-4.623l-14.038 8.208-5.373-8.208h-2.707l6.706 10.194c.166.262.416.412.75.487.291.075.624 0 .874-.15l16.328-9.556 10.164 28.857-14.121 13.866c-17.869-9.219-34.614-16.827-50.817-23.048l7.956-19.263 2.333-1.387h-4.082s-.25.225-.334.375l-7.997 19.488c-25.242-9.482-49.193-15.516-74.143-18.664v-1.199h-2.333v.937a661.229 661.229 0 0 0-9.039-.937h-71.435v.075c-6.79.45-13.871 1.012-21.035 1.65v-1.687h-4.624v2.098c-13.079 1.2-26.45 2.586-39.362 4.01l-1.125-6.146h-2.332l1.166 6.409c-18.702 2.098-36.363 4.347-50.692 6.22l-1.5-12.629h-2.332l1.541 12.93a3216.263 3216.263 0 0 0-29.907 4.122l-4.416-15.74 8.623-1.312h-29.408l17.578 1.762h.333l.542-.075 4.373 15.553-31.573-2.361-1.791-14.879h-4.665l1.749 14.504-57.898-4.31 1.666-10.194h-2.332l-1.666 10.007-33.615-2.511-2.957-7.533h-12.288l1.999 5.134-12.246-2.66c-.083-.75-.166-1.575-.291-2.474h-11.622c.25 2.21.5 4.347.75 6.446-2.249 10.306-26.075 119.702-48.318 223.326-18.827-2.81-39.196-5.884-56.149-8.47-.208 0-.458-.037-.666 0l-113.756 12.78c-.291 0-.54.113-.79.225L-.092 197.996v4.722l44.736-21.137 113.005-12.705c5.998.899 30.657 4.684 55.691 8.395a16100.334 16100.334 0 0 0-10.913 50.969c-21.702 4.722-97.261 21.512-106.758 28.258-7.998 5.696-3.29 13.979 3.207 25.409 3.083 5.397 6.54 11.506 9.331 18.439 7.914 19.825 19.285 54.529 20.701 58.951l-27.241 37.065s-.208.413-.208.638l5.706 111.532c0 .262.125.524.334.712l6.164 5.471c-42.07 14.429-72.81 24.998-76.642 26.309-2.457.488-16.661 3.411-37.113 7.496v10.681c15.662-3.148 28.033-5.622 34.739-7.008l5.456 17.501s-.333.413-.374.675l-2.166 17.352v.412l9.371 29.008-47.068 6.296v2.098l53.525-7.195-8.956 21.924-44.527 4.385v2.099l44.569-4.385 40.07 111.045s.167.299.292.449l23.118 19.976-50.234-13.267-40.82-45.872a.78.78 0 0 0-.25-.562c-.125-.15-.334-.225-.5-.3L.2 695.918v3.335l13.83 15.553L.2 725.487v2.736l15.287-11.805 16.453 18.476-15.412 10.793C10.905 739.916 5.449 734.144.2 728.56v16.078c3.124 3.26 6.248 6.521 9.414 9.782L.2 760.041v2.511l10.955-6.521a1804.598 1804.598 0 0 0 20.41 20.612l-21.118 8.995L.2 769.073v4.272l8.164 13.192L.2 790.023v2.323-.075zm67.854 4.723a8792.089 8792.089 0 0 1-16.245-15.853l6.54-5.06 14.537 17.202-4.874 3.711h.042zm6.623-5.06L60.14 774.732l4.29-3.335 15.037 16.864-4.79 3.636v.037zm46.943 7.308-19.285-9.744 8.247-12.817 23.201 6.109-12.121 16.452h-.042zm13.454-18.251-23.326-6.146 13.912-21.625 23.076-15.515 10.289 17.277-10.247 7.57-.25.225-13.454 18.289v-.075zm174.611-143.126 31.24 49.508a1.302 1.302 0 0 0-1.374.075l-33.698 26.646-56.357-56.291-20.035-53.517 55.399-16.265 2.207-.637 10.539-3.111 13.329 35.379-1.416 17.614c0 .187 0 .412.166.599zm-124.46 35.341-9.372-21.099 12.163-2.174 36.071 34.404-43.486 29.27c-5.581-7.271-11.371-14.804-16.869-22.074l21.243-17.165c.375-.3.5-.749.292-1.162h-.042zm31.448-38.601c-.333 0-.625.112-.875.337l-19.66 19.713-6.914-6.596a1.243 1.243 0 0 0-1.083-.3l-13.163 2.361-12.579-31.555 64.771-13.717 11.163 29.757h-21.701.041zm22.493 2.099 8.247 21.961s.125.263.25.375l23.701 23.686-23.659 21.099-49.901-47.596 19.452-19.488h21.952l-.042-.037zm-55.024 99.689-23.284 17.202-10.247-17.202 22.035-14.841c4.04 5.209 7.914 10.231 11.454 14.841h.042zm1.333 1.724c3.707 4.76 6.998 9.032 9.705 12.517l-8.747 7.796-1.833 1.649-12.996 11.58-9.622-16.19 23.493-17.352zm-3.582-22.786 43.777-29.457 20.369 19.413-42.612 37.964c-5.54-7.12-13.245-17.127-21.534-27.92zm65.729-8.545 29.823 28.445-31.031 23.049-28.949-23.948s-.334-.188-.5-.225l30.657-27.321zm1.624-1.462 23.618-21.062 31.198 31.181-24.867 18.476-29.949-28.595zm-21.535-102.687-66.062 13.979-19.91-49.995 91.596-29.382 31.365-9.819 19.493 58.652-56.44 16.602-.042-.037zM159.4 617.103l-36.572 7.758c-.208-.225-.375-.45-.583-.637l-44.986-36.878 62.355-20.013 19.827 49.808-.041-.038zm.791 1.986 12.996 32.643 9.58 21.587-20.41 16.527c-14.37-18.851-26.7-35.228-28.324-37.927-1.375-3.11-7.081-17.501-10.08-25.147l36.238-7.683zm11.163 100.777-21.826 14.691-12.663-21.25 18.161-14.691c5.373 7.046 10.955 14.279 16.328 21.25zm-16.161 66.447-17.745-4.685 12.955-17.614 9.747-7.196 9.746 16.378-14.703 13.117zm3.249 0 26.616-23.723 3.916 22.711-30.532.974v.038zm55.315-1.799-22.492.712-4.207-24.473 9.455-8.432c3.749 4.797 6.04 7.758 6.165 7.87 1.749 2.024 10.246 7.72 21.909 15.103l-10.83 9.182v.038zM211.8 753.82c-.75-.862-3.291-4.048-6.998-8.845l10.788-9.631a.83.83 0 0 0 .333.524l28.7 23.761-11.413 8.47c-11.58-7.233-19.786-12.593-21.41-14.279zm67.437 42.312c-15.87-9.482-31.699-19.114-44.07-26.797l71.311-52.992 34.572-27.321c.25-.225.375-.487.375-.787l12.371 19.638-74.559 88.259zm111.756-145.937-35.739 55.692-43.361-68.771 1.374-17.502s0-.262-.041-.412l-13.413-35.566 170.196-49.995-78.975 116.554h-.041zm-104.634-64.798-19.827-59.663c-.083-.263-.291-.488-.583-.637a1.256 1.256 0 0 0-.541-.113c-.125 0-.25 0-.375.075l-31.407 9.819-15.578-44.898c60.897-20.949 122.252-42.124 156.45-54.042l17.744 50.969a.966.966 0 0 0 .583.6c.292.112.584.15.917.075l54.607-16.565 22.743 60.076-184.733 54.304zm-27.824-372.71 28.741-9.445-21.285 69.783-17.37-1.799 9.914-58.539zm-12.205 58.314-11.038-1.162 6.79-51.756 13.995-4.609-9.747 57.49v.037zm83.307-155.83c.292.037.625 0 .875-.187a.987.987 0 0 0 .458-.675l4.999-28.932c.083-.525-.292-1.05-.875-1.162l-20.535-4.198 1.666-10.118 41.32 5.434c.333.037.708-.038.958-.263l6.206-5.284 16.787 1.2-5.873 50.706s-.25.075-.375.15c-6.623 4.048-13.996 8.582-21.702 13.23L342.3 125.065c-.208-.187-.5-.3-.833-.3-.292 0-.542.075-.75.263l-21.826 17.164-14.163-2.736 4.582-27.77 20.286 3.485h.041zm-19.91-5.547 4.54-27.583 19.286 3.935-4.666 26.909-19.202-3.298.042.037zM497.75-16.524l31.949-5.397v.15l8.122 40.251-33.156 5.06-6.915-40.064zm.583 16.94-43.611 3.972c-.874-5.846-1.666-10.943-1.999-13.266l42.778-7.234L498.375.416h-.042zm41.029 19.938c.292-.038.583-.188.75-.412.166-.225.25-.525.208-.788l-8.331-41.262s-.041-.112-.083-.15l26.117-4.422 8.164 39.95s-.25.188-.333.263L523.451 62.59 508.08 43.665l-3.124-18.027 34.364-5.247.042-.037zM245.164 453.74l-2.957-5.209 2.624-23.536 39.737-1.162-1.166 11.581-38.238 18.326zm37.988-15.89-1.916 19.225c-9.289 3.186-18.827 6.484-28.533 9.819l-6.456-11.318 36.947-17.726h-.042zm38.154-135.256 30.866-3.897 3.249 21.961c.041.3.25.563.5.713.291.149.624.224.958.149l50.858-12.479 15.662 37.364-60.481 19.413-12.163 3.898-9.33-23.423c-.208-.487-.791-.787-1.333-.675l-36.53 7.383 17.786-50.407h-.042zm-9.496 19.938-34.073-11.73 3.541-20.65 6.956 7.008s.416.3.666.338l30.074 4.984-7.081 20.088h-.042l-.041-.038zm42.569-183.001 5.749 10.794-24.201 14.016c-.417.262-.625.712-.5 1.162l5.873 17.689-12.038 3.935-12.038-25.372c12.247-7.233 25.367-15.141 37.155-22.261v.037zm-27.574 11.543-5.957-7.72 20.66-16.265 10.164 9.032a5226.896 5226.896 0 0 1-24.867 14.953zm11.121 14.616 24.326-14.091c.5-.3.666-.862.416-1.312l-6.331-11.918c6.623-4.01 12.746-7.757 17.953-10.943l-14.871 49.882-15.911 5.21-5.582-16.828zm223.554-28.22c.292.525.958.749 1.541.487s.833-.862.542-1.386l-4.999-9.37 19.994-7.72c.541-.225.833-.787.625-1.312l-7.998-20.687 60.273-25.185 21.826 57.115c-91.012 35.641-195.854 76.829-203.435 79.827l-.25.075-20.119-52.806 2.625-.862 39.654-16.565 74.101-30.993 15.662 29.382h-.042zm-13.579-30.244 21.202-8.845 7.581 19.601-19.119 7.345-9.664-18.101zm209.184 102.65-60.981 25.334-20.535-53.817 62.022-23.948 19.494 52.468v-.037zm-17.37-53.293 46.485-17.951 14.371 26.046c.125.263.375.45.708.525.291.075.625.038.916-.075l12.08-6.034 14.037 21.175-69.103 28.707-19.452-52.393h-.042zm-64.938 22.786-18.66-48.832c12.871-5.06 25.492-9.969 37.446-14.654l5.832 16.603c.083.262.333.487.624.637.292.112.625.149.917 0l24.325-8.733 11.497 30.994-62.064 23.948.083.037zm-2.124.825-92.137 35.566-4.124-8.845c-.167-.412-.625-.637-1.083-.637-.167 0-.292 0-.458.075-.583.225-.875.825-.625 1.349l4.165 8.882-109.881 42.424-18.203-47.745.333-.113c1.875-.749 109.882-43.174 203.352-79.789l18.619 48.833h.042zm-304.32 201.065-11.371 3.973-5.415-13.605 11.121-3.56 5.665 13.192zm-3.499-13.904 39.529-12.705 4.666 12.368-38.53 13.492-5.665-13.155zm-10.038 18.626-44.278 15.478-5.581-14.878 44.402-14.241 5.457 13.641zm-46.444 16.228-19.993 6.971 1.791-17.877 12.621-4.048 5.581 14.954zm.75 1.986 7.331 19.601-16.62 5.771-13.87 4.835 2.291-22.899 20.951-7.345-.083.037zm2.166-.749 44.319-15.516 7.789 19.563-44.819 15.553-7.331-19.6h.042zm46.485-16.265 12.496-4.385 39.529-13.829 7.498 19.825-51.734 17.952-7.789-19.563zm54.191-18.964 34.406-12.03 8.122 19.713-35.03 12.142-7.498-19.825zm-.749-1.986-4.666-12.293 34.323-11.018 4.665 11.318-34.364 11.993h.042zm14.37-20.613-8.872-21.137h.208l15.162-2.811 7.997 19.339-14.495 4.647v-.038zm8.747-24.472 16.62-3.748 6.331 16.865-11.829 4.909-3.291 1.05-7.914-19.114.083.038zm18.494-5.322c-.166-.45-.624-.712-1.083-.712h-.291l-18.911 4.235-16.12 2.998s-.333.112-.5.225l-14.828-35.379 66.02-25.484 22.535 59.101-30.199 12.555-6.623-17.577v.038zm-70.394-21.362 16.578-6.409 7.914 18.889-19.244 4.722-5.248-17.202zm2.999 17.764-27.908 6.858-3.082-20.799 25.742-3.261 5.248 17.202zm86.306-175.543-19.494-35.941 71.852-33.43 20.702 38.79-73.06 30.543v.038zm-2.083.862-38.446 16.078-2.499.824-13.829-36.315 35.364-16.453 19.452 35.866h-.042zm-43.111 17.614-64.521 21.175 15.12-50.819.375-.225 35.114-6.484 13.87 36.353h.042zm-65.229 23.611 18.119-5.959v.075l8.206 27.546-35.239 8.395 8.955-30.057h-.041zm27.991 23.423c.291-.075.541-.262.708-.487a.885.885 0 0 0 .125-.787l-8.497-28.558-.125-.225 45.777-15.028 20.118 52.768-64.896 20.687-40.487 12.892 9.622-32.305 37.655-8.957zm-7.206 30.694 5.79 16.752c.208.562.833.862 1.458.675.624-.188.958-.75.749-1.312l-5.831-16.827 63.854-20.35 18.245 47.896-85.64 33.054-27.741 3.523-30.907 3.935 19.161-54.342 40.82-13.004h.042zM339.551 347.68l8.997 22.561-57.69 18.514 11.871-33.655h.083l36.739-7.42zm-51.192 41.337-16.787-7.158 5.79-29.382 22.993 2.473-12.038 34.104.042-.037zm-3.582 32.53-39.738 1.162 1.958-17.652 40.737-13.079-2.957 29.532v.037zm.833 15.066 13.787-4.797 6.123 16.715c-7.081 2.436-14.371 4.947-21.868 7.533l1.958-19.451zm15.953-5.547 15.661-5.434 7.248 16.34c-5.415 1.874-10.996 3.823-16.786 5.809l-6.123-16.715zm17.827-6.183 44.82-15.553 6.581 16.527a13305.879 13305.879 0 0 1-44.153 15.328l-7.248-16.34v.038zm46.944-16.303 51.692-17.952 6.248 16.565c-13.746 4.647-24.367 8.283-30.282 10.419-3.999 1.462-11.33 4.047-21.119 7.458l-6.581-16.528.042.038zm32.073 18.701c5.79-2.099 16.203-5.696 29.657-10.231l19.577 51.756-53.483 16.227-17.452-50.107c10.08-3.522 17.577-6.183 21.701-7.645zm28.074-20.837-6.289-16.565 35.114-12.18 6.956 16.79a16758.977 16758.977 0 0 0-35.781 11.955zm30.991-29.495 47.359-16.415 6.707 17.652c-16.287 5.359-32.323 10.681-47.152 15.59l-6.956-16.827h.042zM456.68 375l-8.122-19.713 47.943-16.752 7.622 20.013L456.722 375h-.042zm-8.955-21.661-4.666-11.244 3.333-1.086 44.027-18.289 5.29 13.829-47.984 16.79zm21.576-92.494 204.143-78.815 20.577 53.893-81.765 33.954-120.42 50.032-22.493-59.027-.042-.037zm227.094-23.648 34.531-14.354 19.994 53.78-78.017 32.755 23.492-72.181zm36.655-15.216 121.503-50.482c.709 16.378 1.375 41.525.209 43.624-2.291 1.799-38.655 12.03-61.023 18.064a.943.943 0 0 0-.541.3l-40.404 41.637-19.744-53.18v.037zm121.753-52.843-24.367 10.119-14.745-22.224c-.333-.487-1-.637-1.541-.375l-11.997 5.997-13.787-24.998 21.243-8.207s.084-.038.125-.075c.084-.038.167-.075.25-.15 0 0 .042 0 .042-.037l70.269-70.682 13.121 1.76.125.076-4.582 10.119s-.083.262-.083.374v35.641l-34.073 62.662zm-9.247-78.814-34.739-28.07a1189.343 1189.343 0 0 0 17.578-15.179l33.989 26.309-16.828 16.94zm-1.541 1.536-15.495 15.553-25.409-38.789c1.875-1.536 3.916-3.223 5.999-4.947l34.905 28.183zm-17.119 17.202-17.287 17.39-17.202-49.695c2.291-1.537 5.331-3.86 8.913-6.709l25.576 39.014zm-19.203 18.851-20.368 7.87-7.206-13.079c-.208-.375-.625-.562-1.042-.562-.166 0-.333 0-.499.112-.584.263-.792.862-.542 1.387l7.165 12.967-46.194 17.839-18.328-49.282c38.53-15.066 66.104-25.785 68.312-26.497.375-.112.875-.375 1.416-.674l17.245 49.919h.041zm-83.098-5.621-23.326 8.357-5.54-15.74c7.914-3.111 15.537-6.072 22.784-8.92l6.04 16.303h.042zm-69.187 6.146-21.826-57.19 62.355-26.084 21.868 58.839c-18.827 7.345-40.154 15.703-62.397 24.398v.037zm-22.576-59.177L608.798 6.262l66.437-16.902 19.994 53.817-62.397 26.084zm-2.124.9-83.807 35.041-20.868-39.089 42.986-49.732 37.488-9.519 24.159 63.336.042-.037zm-62.313-57.94L566.27 1.878l34.822-9.332 3.958 10.38-36.655 9.333v-.038zM565.854-.184l-5.54-27.096 31.198-5.284 8.831 23.123-34.489 9.257zm-44.111 63.899-57.357 26.684-4.665-41.45 46.735-4.048 15.287 18.814zM462.178 91.41l-49.9 23.199-34.198 6.296 9.122-78.29 70.228 6.334 4.79 42.462h-.042zM429.897 6.525c-.333.225-.542.562-.5.937 0 .3.208.562.458.712l-.458 36.128-41.987-3.785 5.707-48.946 36.947 2.661-.167 12.255v.038zM385.12 40.292l-27.2-3.336 4.748-47.558 28.158 2.023-5.665 48.87h-.041zm-29.491-3.598-33.239-4.048.416-2.473.333-2.136 6.748-41 30.449 2.21-4.707 47.447zm29.241 5.659-3.041 26.271-17.37-1.236c-.333 0-.666.075-.874.262l-6.165 5.247-40.779-5.36 5.415-32.867 62.855 7.683h-.041zM318.599 143.99l6.248 8.095c-8.747 5.209-17.119 10.156-24.534 14.466l4.166-25.297 14.12 2.699v.037zm-3.332 18.814 11.829 24.922-36.405 11.955 8.373-27.471a1203.325 1203.325 0 0 0 16.161-9.406h.042zm13.829 26.496 13.954-4.572 15.578-5.135-19.411 65.173-19.577 55.541-29.99-4.947-21.535-21.661 21.785-71.507 39.112-12.855.084-.037zm-62.022 86.422 12.163 12.255-3.957 23.199c-.084.487.208.974.749 1.124l34.947 12.03h.167l-10.08 28.558-58.981-6.334 8.205-44.26 16.787-26.572zm7.997 76.491-5.79 29.42-35.572 10.269 7.998-43.286 33.364 3.56v.037zm-4.873 31.369 15.828 6.746-55.316 17.764 2.583-13.867 36.946-10.681-.041.038zm-25.617 22.261-1.874 16.94-14.787.45 2.374-12.78 14.329-4.61h-.042zm-2.124 19.039-2.625 23.573c0 .187 0 .412.125.562l3.166 5.509-23.034 11.056 7.456-40.288 14.953-.45-.041.038zm-27.367 54.791a58720.264 58720.264 0 0 0-51.983 17.877c2.083-12.03 6.873-40.101 11.954-69.37l52.692-16.903-12.663 68.434v-.038zm4.457-11.468 24.576-11.805 6.331 11.093a20882.858 20882.858 0 0 1-32.906 11.318l1.958-10.606h.041zm253.336 61.051-22.326-59.065 83.598-25.372-61.272 84.437zm-23.076-61.013-19.618-51.831c22.659-7.646 53.358-17.839 85.097-28.296l20.202 54.117-85.681 26.01zm149.286-84.999c-7.664 5.622-37.821 24.585-38.113 24.773-.125.075-.208.187-.291.3l-23.368 32.23-19.827-53.105a56522.281 56522.281 0 0 1 116.88-38.377c-11.497 11.693-30.074 30.394-35.239 34.217l-.042-.038zm-85.389-5.696-21.202-55.616 119.504-49.62 29.199 63.411c-27.492 8.995-78.517 25.672-127.543 41.825h.042zm149.994-48.833c-.667 0-1.333.112-1.958.3-.375.112-7.165 2.323-18.328 5.959l-29.282-63.562 79.433-32.979-29.407 90.32s-.334-.038-.458-.038zm4.831 2.361c-.541-.749-1.291-1.349-2.166-1.761l5.582-17.165 80.766-33.917s.083-.075.125-.075c.083-.037.125-.075.208-.15l.042-.037 41.528-42.799c14.412-3.898 59.773-16.228 61.814-18.626 2.041-2.361.875-32.98.25-46.322l34.239-62.962s.125-.299.125-.449V71.135l4.415-9.744 66.562 30.881c-14.162 65.586-28.616 128.81-33.697 138.591-1.5 2.848-2.625 5.397-3.624 7.608-6.123 13.679-7.998 17.839-80.433 41.562-.958.3-1.749.825-2.416 1.499-.708.75-69.186 72.706-96.511 92.419-11.621 5.172-22.868 10.756-33.656 16.715l-43.153-59.589zm320.273-128.959c.542.3 1.25.112 1.583-.375l5.373-8.395 26.372 9.145-29.329 45.947-6.831-2.961 6.165-19.938c.166-.562-.209-1.124-.792-1.274-.125 0-.208-.037-.333-.037-.5 0-.958.299-1.125.749l-6.081 19.563-41.778-18.101c3.165-10.119 7.497-27.021 12.329-47.446l39.154 13.566-5.206 8.133c-.334.487-.125 1.124.416 1.424h.083zM1108.47 49.623l-4.33-11.205 5.58-19.526 37.7 9.782-17.7 50.519-9.29 21.474c-7.5-2.848-15.04-5.771-22.62-8.657l10.7-41.75c.05-.187 0-.374 0-.562l-.04-.075zm212.02 31.144a5.018 5.018 0 0 0-.42-1.124l33.41 4.01-9.54 65.847-43.61-6.933c10.29-25.597 21.37-55.429 20.08-61.8h.08zm58.73 105.873 3.42 71.956c-7.79 7.496-16.87 15.966-26.5 24.81v-92.943l23.08-3.86v.037zm-23.08 1.724v-11.693c6.17-.45 13.92-1.424 22.5-2.698l.5 10.568-23 3.823zm24.79-14.729c11.45-1.761 24.24-4.047 36.86-6.446-1.96 30.544-3.54 54.642-11.08 66.035-2.66 4.048-10.79 12.518-21.87 23.236l-3.91-82.825zm-31.7-7.083c-1.42 0-3.25-.112-5.33-.337l3.33-22.974 52.61 3.898h.33l19.2-3.823c-.33 4.46-.62 8.845-.91 13.08-27.54 5.322-56.24 10.156-69.27 10.156h.04zm-366.342 144.1-.334 5.622-52.4-4.385.334-20.875 20.326 2.136 32.907 4.123-.708 11.768c-.292.187-.5.449-.5.787 0 .337.125.637.416.824h-.041zm-160.283 15.516 73.352-17.952 2.832 22.861c-8.788 1.124-17.619 2.549-26.491 4.235-15.662 2.998-30.782 6.409-45.361 10.269l-4.29-19.413h-.042zm2.083 19.975c-16.328 4.347-31.99 9.257-47.027 14.728 12.871-11.805 27.158-25.821 39.696-38.414l2.832 3.373 4.499 20.275v.038zm73.56-38.227h15.328l3.124 4.497c.209.263.5.45.875.488l10.247.862-.208 14.503c-8.789.525-17.62 1.387-26.492 2.474l-2.832-22.861-.042.037zm20.118 2.961-3.165-4.572c-.208-.3-.583-.488-1-.488h-17.536l-74.934 18.327-2.791-3.336c14.995-15.065 27.158-27.77 30.74-31.555 49.901-16.378 68.02-24.211 76.975-33.093l2 2.848-.792 52.581-9.497-.787v.075zm9.872-56.328c1.542-1.762 2.791-3.598 3.916-5.547l32.489 4.685-.874 6.933-3.832 19.263-9.456 11.094-19.952-2.062.458-30.094c0-.187-.041-.412-.166-.562l-2.583-3.673v-.037zm50.193 7.42-12.288-2.024 2.499-19.675 14.537 6.296-4.79 15.403h.042zm6.914-14.466 6.831 2.961 1.75 14.054-13.204-2.174 4.623-14.841zm-20.452 4.122-31.656-4.572c.75-1.499 1.499-3.035 2.249-4.722 1-2.211 1.999-4.497 3.374-7.083.708-1.387 1.624-3.71 2.624-6.783l25.034 10.868-1.583 12.33-.042-.038zm-34.739 62.325 52.317 4.385-.625 10.269c-17.078-1.275-34.364-1.424-51.9-.45l.208-14.204zm22.951-22.674 8.831-10.343s.208-.3.208-.45l3.707-18.514 13.163 2.174 15.911 2.623h.292l44.363 1.499 4.16 32.118-31.49-1.124h-.04c-.29 0-.58.112-.79.3-.21.187-.37.45-.37.749v9.894l-25.705-1.349.75-12.517c0-.525-.417-1.012-1-1.087l-31.99-4.01v.037zM1321.9 173.261l-5.37 45.31-23.07-3.711h-.21c-.5 0-.96.3-1.13.75l-13.04 42.274-27.78-9.594 8.71-17.614 30.24-64.086c11.16 2.548 22.07 4.834 31.61 6.633l.04.038zm-27.32-16.378c1.58-3.898 3.29-8.057 5.04-12.367l44.11 7.008-2.08 14.391c-10.96-1.349-28.41-4.834-47.07-9.032zm.17 181.652-24.25-17.877 59.03-20.125s.08 0 .12-.037l12.33-4.198a4528.371 4528.371 0 0 1-47.28 42.237h.05zm46.61-26.871-9 47.708-8.96.225 1-32.755c5.46-4.834 11.13-9.931 16.92-15.178h.04zm-19.29 17.277-.96 30.694-34.82.824c6.21-5.397 19.66-17.202 35.74-31.518h.04zm-60.44-128.172-11.33 24.023-31.65-11.318 11.83-24.923 31.19 12.218h-.04zm-30.28-14.129 6.16-13.005 13.67 4.722-7.71 13.043-12.16-4.76h.04zm14.29 5.584 7.74-13.154 15.92 5.471-6.75 14.279-16.91-6.633v.037zm-7.21-20.537 7.54-15.891c10.12 2.624 21.54 5.434 33.03 8.133l-8.83 18.701-31.74-10.943zm-2.16-.75-29.58-10.194 6.21-14.204c.54.188 1.08.375 1.5.488 5.7 1.836 16.37 4.797 29.32 8.17l-7.45 15.703v.037zm-.92 1.911-18.87 39.839-25.28-16.453 14.66-33.579 29.53 10.193h-.04zm-46.19 22.299-6.34-2.923 14.46-32.68 3.75 1.499 2.62.9-14.49 33.242v-.038zm-8.42-3.897-47.73-22.149 6.45-15.816 49.57 19.226-8.29 18.739zm-9.08-1.874-20.28 42.237-37.24-16.228 18.07-44.336 39.49 18.327h-.04zm-21.2 44.148-20.29 42.274-35.23-13.304 18.41-45.123 37.15 16.19-.04-.037zm23.28-43.211 7.13 3.298h.04l8.12 3.785 26.16 17.015s.17.075.25.112l-37.53 79.264-45.65-17.239 41.44-86.273.04.038zm43.95 25.035 31.65 11.318-39.19 79.339-30.08-11.356 37.58-79.301h.04zm6.45 87.996 42.24 17.314-19.66 21.85-7.25 7.008-33.4-9.669 18.03-36.54.04.037zm.96-1.911 25.37-51.307 29.07 10.044c.29.113.63.075.92-.037.29-.15.5-.375.58-.637l13.08-42.462 22.2 3.598-2 16.827-16.99-2.024h-.17c-.58 0-1.08.375-1.16.9-.09.562.37 1.087 1 1.162l7.24.862-9.2 13.866c-.21.3-.21.675-.04.974l3.04 5.884-6.83 8.245c-.25.338-.3.75-.09 1.087l8.38 14.541-14.33 6.484-4.75-10.119c-.17-.337-.5-.562-.92-.637-.42-.038-.79.075-1.08.375l-18.37 20.537a.992.992 0 0 0-.08 1.2l8.33 11.767c.33.488 1.04.638 1.58.338l20.41-11.056 2.87 8.807-24.95 8.507-43.19-17.689.08-.037zm64.36-1.537-19.75 10.681-7.29-10.269 16.62-18.588 4.46 9.519s0 .037.04.075v.075l5.88 8.507h.04zm38.65-1.162-32.7 11.131-3.25-9.931s-.04-.075-.04-.113c0-.037 0-.112-.08-.15l-5.79-8.432 15.37-6.933c.29-.113.5-.338.58-.6.09-.262.09-.562-.08-.787l-8.58-14.879 6.83-8.245a.96.96 0 0 0 .12-1.049l-3.08-5.959 9.42-14.166 24.24 2.886-2.96 57.227zm-44.78-144.549a1481.501 1481.501 0 0 1-30.94-7.571l6.78-13.679 28.95 9.407c-1.58 3.935-3.2 7.908-4.83 11.843h.04zm-33.19-8.17c-13.71-3.523-25.29-6.746-31.83-8.845-2.33-.749-6.87-2.361-12.99-4.61l8.45-14.391 43.28 14.054-6.87 13.792h-.04zm-39.41-.3-6.2 14.204-2.59-.9-55.81-22.036 5.45-13.342c26.95 10.231 49.2 18.589 59.15 22.074zm-15.53 12.892-5.25 11.88-49.65-19.225 5.04-12.33 49.86 19.675zm-57.03-8.17-46.32-17.952 4.75-12.817 46.61 18.402-5.04 12.367zm-.79 1.949-6.37 15.665-44.66-20.725 4.75-12.892 46.28 17.914v.038zM1130.17 170l-18.07 44.373-37.66-16.415 21.99-43.623L1130.17 170zm-18.91 46.359-18.87 46.285c-.2.524.09 1.087.63 1.311l84.01 31.744-12.33 26.009-15.74-8.657-2.08-6.634a1.05 1.05 0 0 0-.67-.674l-104.55-39.314-2.17-16.715 6.92-21.737 19.41 7.084c.58.224 1.25-.038 1.5-.563.25-.524-.04-1.124-.63-1.349l-19.61-7.158 4.33-13.604 12.79 3.673c.54.15 1.16-.075 1.41-.563l7.87-15.59 37.83 16.49-.05-.038zm-73.97 32.943s-.04.262 0 .412l2.12 16.34-22.66-.749-3.25-20.875 19.87-17.09s.25-.262.29-.449l6.25-18.439 9.33 3.223-11.95 37.627zm-52.028 61.5 26.908 1.424c.33 0 .62-.075.87-.3a.962.962 0 0 0 .38-.749v-9.932l30.28 1.087-2.91 13.417-4.5 20.762c-17.08-3.86-34.49-6.483-52.111-7.907l1.083-17.802zm57.608 6.371c15.2 2.661 38.32 6.933 42.86 8.432l-10.83 21.812a375.029 375.029 0 0 0-36.32-10.381l4.29-19.863zm44.82 9.632c3.62 2.286 14.62 7.608 46.48 22.374 7.38 3.41 14.75 6.82 21.45 9.894l-12.12 18.176c-8.79-4.16-18.28-8.657-28.57-13.529a383.027 383.027 0 0 0-37.86-15.516l10.62-21.362v-.037zm70.02 33.205c9.2 4.197 16.87 7.72 21.07 9.631l-9.7 19.676c-7.17-3.373-15-7.083-23.45-11.094l12.12-18.213h-.04zm-69.11-35.042 4.63-9.294 10.29-1.387 30.74 6.896 52.77 31.781-7.29 14.803c-35.49-16.152-85.39-39.238-91.09-42.799h-.05zm46.78-5.621s-.25-.113-.37-.15l-31.16-7.008H1103.39l-11.12 1.499a1.1 1.1 0 0 0-.88.599l-4.7 9.52c-1.92-.675-6.33-1.799-16.66-3.823l2.95-11.543c.13-.562-.25-1.124-.87-1.237h-.25c-.54 0-1 .337-1.13.825l-2.99 11.58c-6.13-1.162-14.08-2.623-24.41-4.422l2.91-13.567v-.375l-4.2-32.455 102.8 38.677 2.08 6.52c.08.263.25.45.5.6l17.24 9.519 29.66 13.754-6.5 13.117-52.61-31.705.17.075zm31.45 3.41 12.45-26.234 30.04 11.356-13.92 28.183-28.57-13.267v-.038zm38.4 19.001 66.44 19.226-8.83 15.928-64.52-21.062 6.96-14.054-.05-.038zm36.78 8.432 5.96-5.771 26.16 12.292c-.17.188-.29.413-.42.638l-.96 1.724-30.69-8.883h-.05zm7.5-7.383 18.99-21.099 24.66 18.176c-6.66 5.847-12.58 11.056-17.41 15.253l-26.24-12.33zm34.07 20.013s.21-.187.34-.3l49.52-1.161c.54 0 1-.375 1.13-.862l9.7-51.456c3.21-2.886 6.42-5.809 9.62-8.733v76.379l-78.97 1.761 8.66-15.59v-.038zm62.44-70.195-15.49 5.285 2.95-57.303c0-.525-.41-1.012-1-1.087l-15.78-1.874 7.58-64.086c10.91 1.987 19.87 3.261 25.03 3.261 1.38 0 2.92-.037 4.58-.15v108.721a621.769 621.769 0 0 1-7.91 7.196l.04.037zm53.94-147.697-52.36-3.898 2.63-18.101 31.78-2.249 39.86-3.898c-.91 8.32-1.62 16.416-2.2 24.211l-19.71 3.897v.038zm-111-4.535-28.79-9.369 23-46.21c.25-.487.04-1.011-.42-1.311l-36.28-21.062 13.54-23.049c23.99 19.113 46.32 38.227 49.19 43.249-.21 5.36-9.45 30.881-20.2 57.79l-.04-.038zm-8.33-55.616-22.66 45.535-43.16-14.017 30.54-52.018 35.28 20.5zm-77.52 46.996c-11.71-4.309-28.62-10.681-47.94-18.026l3.91-7.983c.25-.524 0-1.124-.58-1.386-.17-.075-.33-.075-.46-.075-.46 0-.87.225-1.04.637l-3.96 7.982c-9.7-3.71-19.99-7.608-30.49-11.618l8.87-20.5 14.46 6.034c.29.113.62.113.91 0 .3-.112.55-.3.67-.562l12.33-25.672 67.94 29.27-24.58 41.899h-.04zm-107.43-40.775c-23.74-9.107-47.1-18.101-66.31-25.522l2.09-15.515 68.81 23.086-4.59 17.914v.037zm53.74 31.856-5.42 13.304-75.97-29.982 3.83-12.967c25.87 9.932 53.48 20.5 77.56 29.682v-.037zm-54.98-3.973-10.21 27.546-24.74-11.468 7.91-26.759 26.99 10.681h.05zm-.09 34.592-30.45 60.375-12.91-3.71-25.62-8.882 33.29-64.311 35.69 16.565v-.037zm-56.6 54.267-6.21 18.326-20.08 17.277c-.25.225-.41.562-.33.899l3.25 21.063-17.997-.6-1.832-14.803 29.819-46.772 13.42 4.647-.04-.037zM711.724 402.846c.541-.15 1.083-.337 1.583-.637.458-.262.791-.562 1.124-.9a427.894 427.894 0 0 1 35.531-17.914c.5-.15.958-.337 1.416-.637 36.738-16.302 77.725-28.707 123.336-37.402 83.598-15.928 162.576-6.634 234.756 27.621 79.69 37.777 112.88 53.405 123.75 58.502-10.33 28.107-25.53 81.925-40.02 136.342 0 .037 0 .074-.05.112v.112c-1.45 5.435-2.87 10.869-4.33 16.303-28.82-3.898-219.72-29.57-223.718-30.319-4.374-.825-67.104-8.058-69.77-8.357h-.375l-36.072 5.883-8.455-51.681a1.093 1.093 0 0 0-.833-.862l-33.448-8.507-33.531-8.545-47.901-28.595-41.446-39.313a408.991 408.991 0 0 1 18.328-11.206h.125zM1221.39 568.72c-4.7-1.162-10.91-2.511-15.53-3.485 3.54-13.23 7.12-26.384 10.62-39.089l12.08 5.097-7.17 37.477zm1.59 11.281c.83.299 4.79 2.211 8.95 4.235 14.75 7.12 43.24 20.837 66.07 29.157l-7.42 18.139-22.95-8.807c-.33-.15-.71-.113-1.04.075l-7.92 4.234-64.89-16.115c3.04-11.655 6.16-23.61 9.37-35.566 8.37 1.799 17.83 3.936 19.83 4.648zm-5.92-55.916c7.38-26.497 14.46-50.894 20.58-69.858l-8.79 74.88-11.79-4.985v-.037zm-106.75 215.868-32.37-8.919 1.92-29.457 34.74 4.459c.62.075 1.2-.299 1.29-.899.08-.562-.34-1.087-1-1.162l-34.91-4.46 2.38-36.278 53.27 5.247-3.87 20.575-6.38 33.692h-8.29c-.49 0-.95.3-1.12.75l-5.66 16.527v-.075zm.37 2.286 20.49 7.533-2.66 6.784c-7.33-2.586-17.12-6.072-28.37-10.044l1.29-6.821 9.21 2.548h.04zM839.1 706.336c36.613-2.811 102.884-7.57 109.59-6.971 2.624.225 22.785 6.896 50.692 16.49l-2.749 14.691-62.23-13.191h-.333l-88.514 5.359-6.456-16.34v-.038zm14.662 40.363-21.202 2.174-13.703-35.416 17.744-6.933h.083l6.956 17.576 10.08 22.562.042.037zM562.855 600.351l7.872 6.258c.458.375 1.208.338 1.625-.075.416-.449.374-1.086-.084-1.461l-7.289-5.772 2.957-7.233c.209-.487 0-1.012-.541-1.274l-10.455-5.284 41.445-53.93c11.205 11.206 25.95 25.972 39.946 39.801l-62.48 47.858c-.25.188-.375.45-.417.712 0 .263.083.562.292.75l15.786 16.565-15.412 8.47-29.074 9.256a1.596 1.596 0 0 0-.541.338l-39.946 46.247-41.112-.862 19.161-11.506s.291-.225.375-.375l63.438-105.835v-.075l6.165 3.785h.041l10.705 5.397-2.916 7.083c-.166.412 0 .862.334 1.124l.125.038zm225.928-68.771-7.081-10.756 19.702-31.93 13.121 3.335-5.166 16.902a1.662 1.662 0 0 0 0 .637l3 7.683s.166.263.249.375l6.582 5.959-10.247 16.977c-.208.3-.167.712 0 1.012l5.623 8.957-8.539 9.069-27.824-16.04 10.413-10.943a.94.94 0 0 0 .125-1.199l.042-.038zm28.282 18.739-5.706-9.07 10.33-17.127c.25-.412.167-.899-.208-1.237l-6.998-6.371-2.791-7.158 5.082-16.565 31.573 8.02 8.372 51.044-47.443 7.758 7.623-8.095c.333-.337.375-.787.125-1.199h.041zm-34.114-1.387-30.615 27.358c-.458.413-.458 1.05 0 1.462a1.223 1.223 0 0 0 1.625 0l30.948-27.696 20.743 11.956s.084 0 .167.037c.083 0 .125.038.208.075H806.486l50.275-8.208-2.457 54.755-26.992-4.76c-.458-.075-.958.113-1.208.487L814.691 621.3l-16.495 10.157-17.411-19.263a1.187 1.187 0 0 0-1.333-.3l-17.202 6.333-21.244-28.482c-.041-.038-.083-.113-.125-.15l-14.453-12.705 14.537-15.141c.374-.412.374-1.012-.042-1.386l-32.406-30.319c-.209-.188-.5-.3-.833-.338-.334 0-.625.113-.834.3l-16.911 14.804-28.407-24.96 31.656-31.256 12.579 15.665s.209.188.334.263l76.85 44.298v.112zm271.499 28.52 3.25 7.121c.16.337.5.599.91.637l26.41 2.998-1.58 23.986-39.78-5.397v-.075l4.12-39.314c2.46.338 4.96.675 7.46 1.012l-.88 8.545s0 .337.09.487zm62.06 14.316v23.836l-30.78-3.148 1.58-23.986 29.2 3.336v-.038zm-29.07-5.396.87-13.492c9.58 1.312 19.08 2.586 28.2 3.823v12.967l-29.07-3.298zm-104.636 83.124c-.166-.225-.458-.375-.749-.412l-14.787-2.136h-.167c-.541 0-1.041.374-1.125.862-.083.562.334 1.087.958 1.199l13.621 1.986-6.081 31.593-8.039-2.211c-6.04-1.948-10.789-3.448-13.829-4.272l4.706-49.02 122.838 15.965-4.42 67.459-99.049-27.283 6.332-32.905c.041-.263 0-.563-.209-.787v-.038zm-32.489 25.972a16.79 16.79 0 0 0-1.167-.225 24.29 24.29 0 0 0-1.999-.075c-5.415 0-18.577.712-34.031 1.724l1.25-53.93 40.445 3.748h.125l-4.665 48.72.042.038zm7.164-50.482 4.499-47.109 121.292 16.415-3.04 46.659-122.751-15.965zm128.121-30.431 23.41 2.398-4.08 46.472-22.37-2.211 3.04-46.659zm-.45-28.408-25.58-2.886-2.87-6.296.83-8.17c9.37 1.274 18.95 2.548 28.49 3.86l-.87 13.529v-.037zm-43.74 20.387-30.57-4.122 10.04-38.602c7.78 1.05 16.07 2.174 24.65 3.336l-4.12 39.388zm-32.86-4.497-46.322-6.258 3.79-39.539c5.29.787 25.825 3.598 52.562 7.196L1008.55 602v.037zm-53.362 42.649h-.042l-100.176-9.294 1.625-25.26 2.54-56.44 36.156-5.922c3.623.413 59.522 6.859 68.394 8.17l-8.497 88.784v-.038zm-343.682-20.612-18.078 12.067-15.203-15.965 16.744-12.817 16.537 16.752v-.037zm-14.745-18.102 21.409-16.415 14.746 20.201L613.38 622.8l-16.619-16.865v.037zm-2.875 32.456h.042l40.237-26.834 42.07 57.752-76.809 27.733-21.451-49.882 15.87-8.732.041-.037zm41.571-28.97-15.537-21.25 19.952-15.291c8.206 8.133 16.12 15.928 22.784 22.412 12.663 12.292 25.492 22.449 36.78 31.406 14.454 11.43 26.908 21.287 31.032 29.832.083.149.167.299.25.487l-46.735 19.076-48.568-66.635.042-.037zm83.764-4.835 20.536-12.705 20.576 27.584-25.783 23.423a85.747 85.747 0 0 0-2.083-2.286l-13.287-36.053.041.037zm5.54-29.082-33.156-29.157 16.037-14.054 30.865 28.895-13.746 14.316zm-64.896-57.003-26.075-21.887 32.532-30.918s.083-.075.083-.15l25.242 21.512-31.823 31.406.041.037zm-.708 2.249 79.1 69.52-21.076 13.042c-.417.262-.625.749-.459 1.199l11.913 32.343c-5.915-5.584-13.287-11.393-21.535-17.952-11.121-8.769-23.7-18.738-35.947-30.656-18.785-18.289-47.401-46.846-65.604-65.06l26.617-25.073 26.95 22.637h.041zM548.109 656.866l27.783-8.844 21.41 49.769-42.778 16.153-5.165-10.831c-.167-.375-.583-.637-1.041-.637l-38.946-.824 38.696-44.786h.041zm51.151 42.499 78.308-28.295 5.04 6.933c.292.413.917.6 1.458.375l47.61-19.413c2.791 5.809 8.705 18.139 16.245 33.917-48.985 19.9-123.086 49.657-170.696 68.733l-21.743-45.722 43.778-16.528zm147.161-35.94 19.827-6.971c.583-.225.875-.824.667-1.349-.167-.412-.625-.675-1.083-.675-.125 0-.292 0-.417.075l-19.868 7.009c-2.083-4.348-3.583-7.458-4.374-9.107-1.25-2.624-2.999-5.21-5.123-7.833l26.533-24.098 17.036-6.296 17.536 19.413a1.2 1.2 0 0 0 1.541.187l17.62-10.831s.25-.187.333-.299l11.121-16.453 26.534 4.685-1.625 24.847c-5.29 3.486-51.775 34.029-54.857 36.391-1.208.787-16.537 7.158-39.28 16.415-4.79-10.044-8.955-18.702-12.037-25.148l-.084.038zm108.382-25.972 57.274 5.322-1.291 54.304c-20.702 1.35-44.903 3.111-60.106 4.273l4.123-63.899zm146.787 79.189c27.74 9.52 62.69 21.737 95.59 33.355l-1.58 8.395-96.717-27.246 2.707-14.504zm.75-4.197 96.93 26.721-1.25 6.671c-28.49-10.044-65.56-23.048-95.68-33.355v-.037zm131.54-21.999 26.74 3.823c-1.16 4.647-2.25 8.957-3.25 12.854-2.79 11.093-5.12 20.313-6.08 24.023l-23.57-8.02 6.2-32.718-.04.038zm.38-2.061 3.7-19.638 28.37 2.773c-1.88 7.42-3.62 14.354-5.25 20.687l-26.87-3.822h.05zm-27.04-24.735 4.09-46.435 24.49 2.511-2.21 23.611c0 .3.08.562.29.787.21.225.54.337.83.337h5.25c.54 0 1.04-.374 1.13-.862l4.75-22.861 32.65 3.336c-4.21 16.227-8.12 31.631-11.66 45.422l-59.65-5.846h.04zm11.62-47.784V577.04c14.87 1.986 28.66 3.86 40.2 5.434-4.42 25.41-5.87 33.917-6.25 36.878l-33.95-3.486zm24.7 4.61-4.54 21.849h-3.04l2.13-22.411 5.45.562zm38.33 36.803 71.97 14.728-7.33 11.206-27.24-5.397-40.82-6.896c1.12-4.385 2.29-8.919 3.46-13.604l-.04-.037zm-2.84-35.266-23.99-2.436c.71-4.498 4-23.649 6.25-36.803 12.37 1.686 21.95 2.961 27.03 3.635-3.21 12.068-6.29 24.061-9.29 35.641v-.037zM691.48 415.326l40.904 38.789-33.448 25.709-22.909-22.224 3.124-13.642a.852.852 0 0 0-.25-.862l-10.622-11.318a393.26 393.26 0 0 1 23.201-16.452zm-24.95 17.802 10.247 10.943-3.124 13.679a.914.914 0 0 0 .291.937l24.076 23.348c.416.413 1.125.45 1.583.075l34.53-26.571 47.444 28.333s.208.112.333.15l17.203 4.384-19.744 32.043a.961.961 0 0 0 0 1.05l6.998 10.643-10.08 10.606-68.728-39.651-11.705-14.503 35.031 4.984 5.873 8.358s.291.299.458.374l18.536 8.133a1.232 1.232 0 0 0 1.374-.225l12.663-12.705a.968.968 0 0 0-.042-1.424l-14.62-12.779-8.248-7.196c-.458-.412-1.208-.375-1.624 0a.977.977 0 0 0 0 1.461l7.373 6.447-7.831 6.895c-.458.413-.458 1.05 0 1.462a1.221 1.221 0 0 0 1.624 0l7.873-6.933 6.456 5.621-10.33 7.833c-.5.375-.541 1.012-.125 1.462.417.449 1.125.487 1.624.112l10.497-7.983 4.915 4.31-11.371 11.393-17.453-7.645-5.998-8.507c-.167-.263-.458-.413-.791-.488l-37.947-5.396-44.985-38.377c5.748-5.022 11.621-9.894 17.661-14.579l.083-.074zm-40.071 35.978c6.665-6.934 13.579-13.53 20.744-19.938l17.619 15.028s-.125.038-.166.113l-33.365 31.668-27.283 25.672a4959.774 4959.774 0 0 0-12.537-12.555c12.954-15.816 24.825-29.495 34.947-39.988h.041zm-41.903 48.57c2.999 2.998 7.206 7.233 12.288 12.33l-41.82 54.417-14.995-9.219c15.495-20.613 30.573-40.176 44.569-57.528h-.042zm-45.86 59.252 7.955 4.872s-.166.112-.249.224l-22.618 37.702-11.58-7.083a3922.14 3922.14 0 0 1 26.492-35.753v.038zm-27.783 37.514 11.788 7.158-39.613 66.073-21.285 12.779-8.455-5.809c18.244-25.859 37.904-53.33 57.565-80.201zM446.85 793.92a1.1 1.1 0 0 0-.625.825l-.833 7.046-16.37 1.124-24.409-38.227a6128.167 6128.167 0 0 1 16.828-24.285l18.578 12.63 20.202 34.891-13.329 5.996h-.042zm57.023 10.007-6.414-9.632c-.292-.412-.833-.599-1.375-.45l-25.45 7.646-7.872-13.567-20.869-36.053s-.208-.262-.333-.337l-18.911-12.855a6818 6818 0 0 1 29.449-42.049l8.956 6.146c.166.112.375.187.583.187h.042l44.11.937-3.54 27.508s0 .375.083.525l29.283 60.563-27.742 11.431zm49.693-20.463h-.042l-19.743 8.133-29.116-60.263 3.54-27.434 39.446.825 27.95 58.801 4.165 11.244-26.117 8.657-.083.037zm37.196 14.804-12.745-34.517c17.91-7.158 111.214-44.56 170.778-68.77 5.041 10.568 10.789 22.523 16.745 35.041l-174.819 68.283.041-.037zm168.613-107.597c22.993-9.37 38.946-16.003 39.863-16.715 2.832-2.174 43.694-29.082 53.233-35.304l-4.082 63.075c-6.956.524-11.622.862-12.496.936-.25 0-.5.075-.708.15l-58.982 23.049a35092.378 35092.378 0 0 0-16.828-35.191zm18.661 39.014 38.738-15.141 13.62 35.191-35.447 15.291c-5.581-11.656-11.329-23.686-16.911-35.341zm34.531 72.405c-5.082-10.681-10.83-22.673-16.786-35.153l35.322-15.253 16.786 40.85-35.322 9.519v.037zm37.53-10.118-16.745-40.813 60.939-6.296 9.663 32.567-53.857 14.542zm101.759-27.471-45.694 12.33-9.539-32.193 19.827-2.061 35.906 6.858-.5 15.028v.038zm2.332-.075.542-15.778c0-.487-.375-.937-.916-1.049l-37.072-7.084h-.375l-60.272 6.222L846.348 725l87.639-5.322 62.188 13.192-7.039 37.702-34.989-6.146h.041zm95.802 16.827-58.563-10.269 7.039-37.552 96.724 27.246-3.63 19.039-41.53 1.536h-.04zm69.94-2.586-26.04.975 3.59-18.814s.33-.3.37-.487c.13-.3 0-.6-.12-.862l1.62-8.507c9.46 3.335 18.74 6.633 27.62 9.781l-7.04 17.914zm12.53-.45-10.03.375 6.7-17.052c2.42.862 4.83 1.724 7.21 2.549l-3.83 14.128h-.05zm5.17-18.138c-1.87-.675-4.21-1.5-7-2.474l2.67-6.746 7.58 2.773c-1.13 2.287-2.25 4.46-3.25 6.447zm4.17-8.358-29.37-10.793 5.46-15.853h8.2l24.49 8.32c-1 2.548-4.91 10.568-8.78 18.326zm127.45 43.586-52.9-6.971 54.15-12.517-1.2 19.488h-.05zm69.32 9.144-67.02-8.844 1.25-19.938 72.01 10.644-6.24 18.138zm14.74-43.848-35.86-19.301 5.62-24.022 23.7 11.842c.54.263 1.25.113 1.58-.412.3-.487.13-1.124-.45-1.424l-24.41-12.18c0-.375-.09-.712-.29-1.05l-8.13-11.767 8.83-12.93 45.74 28.07-9.46 13.417c-.16.225-.25.45-.33.712l-6.46 29.083-.08-.038zm52.48-45.047-31.78 45.609-15.33-3.523 5.54-24.922 21.29-30.169 20.24 13.005h.04zm.38-49.958-35.36 50.07-45.78-28.108 32.74-48.008c15.33 7.833 32.15 16.865 48.4 26.009v.037zm-52.44-28.07-43.4 63.674c-.46.674-.46 1.536 0 2.174l8.41 12.18-6.17 26.384c-.2.862.25 1.761 1.09 2.211l38.53 20.762-6.67 19.413-73.6-10.868H1271.46l-32.86 7.608-2.54-22.037c-.04-.45-.46-.824-.96-.937l-10-1.611-2.46-18.814c-.08-.487-.5-.862-1.04-.899l-15.95-1.237h-.08c-.59 0-1.09.412-1.17.937-.04.562.42 1.087 1.04 1.124l15 1.162 2.45 18.739c.05.449.46.824.96.899l10 1.574 2.5 21.587-25.87 5.996-66.23-8.732 3.88-14.279c2-3.935 12.03-23.91 13.62-28.183.33-.936 1.41-5.096 5.95-23.123h30.24l3.71 11.093c.08.3.33.525.63.637.29.113.66.113.95 0l13.42-5.434c.58-.225.83-.862.58-1.386-.25-.525-.96-.75-1.54-.525l-12.25 4.947-3.58-10.719c-.17-.449-.58-.749-1.12-.749h-30.62c.13-.525.25-.975.38-1.499 2.49-9.857 5.62-22.337 9.24-36.503l39.41 6.671-7.29 12.667-19.5-2.811c-.62-.075-1.2.3-1.33.862-.08.563.33 1.087.96 1.2l20.33 2.923c.5.075.99-.15 1.2-.562l8-13.867 25.62 5.06-4.54 6.97c-.34.488-.13 1.125.41 1.424.55.3 1.25.113 1.59-.374l13.49-20.613 29.24 5.997c.63.149 1.25-.225 1.38-.787.12-.563-.25-1.125-.88-1.237l-103.59-21.175c3.37-13.267 7.04-27.508 10.91-42.274l65.27 16.228c.3.074.63.037.92-.113l7.83-4.197 23.54 9.032c.29.112.62.112.91 0 .29-.113.5-.338.63-.6l7.79-19.113c2.79.974 5.49 1.911 8.04 2.698 9.28 2.848 26.03 10.494 45.65 20.388v.037zm-15.21-19.226c-10.99-5.134-20.32-9.032-26.7-11.018-5.87-1.799-12.49-4.235-19.41-7.008l6.88-12.33c.29-.525.04-1.125-.5-1.387a1.244 1.244 0 0 0-.5-.112c-.42 0-.84.225-1.04.562l-6.92 12.405c-19.58-7.945-40.94-18.252-52.98-24.061-6.29-3.035-8.92-4.309-10.12-4.722a67.58 67.58 0 0 0-3.67-1.049l7.08-37.102 122.84 52.055c-5.5 13.042-11.37 26.01-14.96 33.805v-.038zm15.79-35.753-123.29-52.243 4.87-41.45 107.59 44.036-7.25 15.103c-.25.487 0 1.087.55 1.349l25.86 12.143c-2.29 6.334-5.2 13.679-8.29 21.1l-.04-.038zm10.87-28.633c-.54 1.724-1.16 3.561-1.83 5.547l-24.58-11.505 6.79-14.167 22.12 9.07c-.66 4.01-1.5 7.758-2.54 11.093l.04-.038zm5.29-65.172c.17 6.146.67 31.63-2.41 51.943l-131.92-54.005 5.04-43.023 129.29 45.085zm-132.71-66.597c-7.7-3.598-25.07-11.768-58.52-27.584l18.04-36.502 64.44 21.062-23.96 43.061v-.037zm12.21 1.349 11.41-20.538 93.01 2.586-104.42 17.952zm165.32-45.797 5.79 4.609-51.73 20.65-4.54.787-102.3-2.81 11.16-20.088 141.62-3.111v-.037zm-11.16-30.132-13.12 2.511c-.54.112-.92.525-.92 1.012v25.072l-33.95.75v-78.44c2.38-2.136 4.71-4.31 7.04-6.446l.75 33.542c0 .412.29.787.71.937l7.25 2.811-1.83 25.709c0 .562.45 1.087 1.08 1.087.62 0 1.21-.412 1.25-.975l1.75-24.959 18.87 7.345c.5.188 1.12.038 1.41-.375l4.42-5.958 8.37.936-3.08 15.479v-.038zm3.5-17.502h-.13l-9.08-1.012c-.46-.037-.87.113-1.12.45l-4.29 5.772-26.83-10.419-.75-34.929c8.42-7.72 16.46-15.253 23.62-22.149l1.08 36.241c0 .562.54 1.011 1.17 1.011h8.62l-1.54 13.867c-.04.562.38 1.049 1 1.124l9.96 1.349-1.71 8.658v.037zm22.45-8.657-19.25-1.911-9.99-1.35 1.46-12.967 26.65 2.886c.21 0 .42 0 .59-.075l.58 13.454-.04-.037zm-.67-15.366s-.12-.075-.25-.075l-27.82-2.998h-8.92l-1.12-37.365c.46-.412.87-.824 1.29-1.274h35.03l1.75 41.675.04.037zm-3.16-75.141 1.33 31.368h-32.78c10.87-10.606 18.95-19.113 21.91-23.573 2.5-3.823 4.41-8.47 5.95-13.904l3.63 6.146-.04-.037zm11.03-247.875c-5.45 48.159-11.28 99.203-14.49 125.624-.25 2.136-.5 4.235-.75 6.334l-40.32 3.935-.92.075 13.83-140.877s0-.337-.12-.487l42.77 5.471v-.075zm-65.64-8.357 20.95 2.66s-.25.338-.29.563l-13.83 141.252-27.99 1.948 21.16-146.423zm-2.29-.3-7.08 48.87L1284.21.38l14.87-36.091 70.27 10.081zm-93.18-13.38s-.13.113-.13.15l-13.7 38.565c-.21.562.13 1.124.75 1.312.62.187 1.25-.113 1.46-.675l13.7-38.564s.04-.337 0-.487l18.45 2.66L1281.58.679c-.12.263-.08.562.05.825.12.262.37.45.66.524l79.64 23.311-8.16 56.366-35.07-4.198c-6.54-9.369-30.16-29.082-53.28-47.37l9.46-16.079L1297 27.55l-1.55 7.346c-.08.337.05.712.34.974l7.79 6.521c.46.375 1.21.375 1.62-.037.42-.412.42-1.087-.04-1.462l-7.33-6.109 1.58-7.457c.08-.413-.12-.825-.5-1.05l-23.82-14.541s-.42-.187-.67-.187h-.29c-.34.074-.58.262-.75.524l-9.79 16.678c-3.37-2.661-6.71-5.247-9.96-7.796-.08-.037-.12-.112-.2-.15-.42-.3-41.95-29.981-43.45-65.285-.04-1.349-.04-2.698-.04-4.047l66.15 9.481.08.038zm-67.06 27.959c13.41 22.748 34.99 38.451 37.15 39.988 3.92 3.036 7.92 6.184 11.87 9.294l-29.36 50.07-32.62-14.054 8.08-23.836c.21-.562-.16-1.124-.75-1.311-.12 0-.2-.038-.33-.038-.5 0-.96.3-1.12.75l-8 23.535-18.25-7.87 16.79-42.05c.17-.411 0-.899-.37-1.16l-8.04-5.847 24.95-27.434v-.037zm-50.99 16.115 23.7 12.33 8.25 5.996-16.45 41.15-14.04-6.034s-.33-.112-.5-.112c-.12 0-.29 0-.42.075-.29.112-.54.3-.66.562l-12.33 25.71-13.54-5.66 25.95-74.017h.04zm-2.08-.974-7.96 22.673-37.77-9.819 7.83-27.433 37.9 14.541v.038zm-60.98-57.34 58.98 14.39-16.87 33.468-19.37-7.42-29.65-9.82 6.95-30.544-.04-.075zm-50.15 4.085 43.9 12.967-3.16 13.941-13.67 45.722-36.48-3.448 9.37-69.22.04.038zm-11.37 84.136 26.74 5.134c.62.113 1.25-.225 1.37-.787.13-.562-.25-1.124-.87-1.236l-26.95-5.172 1.46-10.756 37.49 3.523c.58.074 1.08-.263 1.25-.75l13.57-45.535 28.41 9.407-14.16 49.545c-.04.187-.04.412 0 .6l4.33 11.242-5.41 21.138-69.02-23.161 1.79-13.192zm-43.571-18.926L1032 29.048l-1.84 13.567-42.94-13.23c.958-4.572 1.874-9.031 2.79-13.304l-.041-.037zm-3.208 15.403 43.109 13.267-2.75 20.238c-25.16-9.707-42.608-16.453-43.191-16.678a3.383 3.383 0 0 0-.667-.187 7580.517 7580.517 0 0 0 3.499-16.603v-.037zm-5.664 27.058c8.83 3.41 46.193 17.877 88.593 34.18l-3.83 12.967-87.429-34.554c.916-4.235 1.791-8.432 2.666-12.593zm-3.124 14.692 87.307 34.479-7.87 26.646-84.144-39.051c1.582-7.42 3.165-14.804 4.748-22.074h-.041zm-5.207 24.21 83.844 38.901-33.4 64.498-68.313-23.685c5.581-23.573 11.787-51.719 17.869-79.714zM969.85 55.77a9671.611 9671.611 0 0 1-7.373 34.554L896.332 59.63l9.164-20.35c27.324 7.645 51.233 13.417 64.312 16.49h.042zm-66.562-17.09-9.039 20.013h-.125s-.25-.15-.375-.15l-13.912-1.874h-.167c-.333 0-.624.113-.874.337L863.759 72.11l-33.864-26.234a2463.506 2463.506 0 0 0 24.658-22.037c16.329 5.434 33.032 10.456 48.693 14.841h.042zM788.116-2.92c17.745 9.22 40.529 18.027 64.147 25.972-17.911 16.228-51.859 46.397-61.939 52.806 0 0-.042 0-.083.037-.875.562-1.583.937-2.083 1.087-2.249.712-29.824 11.43-68.27 26.459L698.02 44.564l66.937-27.995s.083-.038.125-.075c.083 0 .125-.075.167-.113 0 0 .041 0 .083-.037l20.743-20.35c.708.374 1.375.712 2.083 1.086h-.042zm-4.165-2.136L764.166 14.32 732.801-.483l5.248-25.373c14.662 5.66 29.782 12.555 45.902 20.763v.037zm-48.068-21.587L730.385-.07c-.084.45.166.9.583 1.124l30.823 14.541-64.562 26.984-19.869-53.48 7.248-1.837c1.249-.3 1.957-1.461 1.582-2.586-.291-.899-1.208-1.536-2.207-1.536-.208 0-.417 0-.625.075l-7.414 1.874-9.956-29.832c23.41 3.185 46.028 9.032 69.853 18.064l.042.037zM615.671-47.63c16.703-.187 32.448.637 47.86 2.586l10.247 30.731L607.215 2.59l-18.744-49.133c9.831-.6 19.036-1.012 27.242-1.087h-.042zm-29.615 1.237 4.623 12.068-93.345 15.74-3.249-18.739c28.741-3.523 62.855-7.195 91.971-9.107v.038zM432.604-29.116c5.165-.75 29.033-4.198 59.19-7.908l3.249 18.814-62.73 10.568.291-21.512v.038zm-.291 23.648 18.036-3.036c.625 4.048 1.291 8.583 1.999 13.117L432.146 6.45l.167-11.88v-.038zm-.167 13.979 20.535-1.874c1.791 12.105 3.458 23.536 3.458 24.51 0 .562.499 1.05 1.166 1.05.666 0 1.166-.45 1.166-1.05 0-1.2-1.833-13.716-3.499-24.697l43.653-3.973 6.998 40.625-47.235 4.085-26.742-2.398.459-36.278h.041zm-1.999-37.44h.167l-.292 21.362-36.738-2.66 2.457-21.288 34.364 2.549.042.037zm-96.428-7.195 59.731 4.46-2.457 21.287-29.324-2.1-31.449-2.248 3.541-21.362-.042-.037zm-60.481-7.496 20.702 4.497h.25c.208 0 .417.075.625.113l36.613 2.736-3.54 21.362-59.981-4.31c2.374-10.981 4.207-19.338 5.29-24.36l.041-.038zm-5.748 26.422 60.065 4.31-6.582 39.838-61.73-6.296c3.124-14.467 5.915-27.284 8.206-37.89l.041.038zm-8.664 39.95 61.814 6.296-.75 4.573-5.748 34.89-1.999 11.994-4.874 29.682-4.915 29.719-4.665 28.22c-12.788 7.383-22.16 12.518-24.326 13.08-2.707-.113-22.701-2.961-47.401-6.596 11.621-54.117 23.701-109.77 32.864-152.083v.225zM225.087 178.92c24.159 3.56 45.986 6.671 48.443 6.671 1.791 0 10.622-4.61 22.659-11.468l-8.122 26.683-30.907 10.157h-.083l-16.453 5.396h-.083l-25.284 8.32c3.166-14.878 6.498-30.244 9.83-45.797v.038zm-10.33 48.195 24.867-8.17-6.623 50.707-26.741-2.773c2.666-12.593 5.54-25.934 8.455-39.764h.042zm-8.914 41.825 28.033 2.923 13.246 1.387 17.869 1.836-16.828 26.609s-.125.225-.125.337l-19.827 107.11-52.733 16.94c4.207-24.248 8.539-49.058 11.538-65.998 2.124-11.917 9.33-46.621 18.786-91.144h.041zm-95.136 30.731c-2.833-7.045-6.331-13.229-9.455-18.701-6.79-11.955-10.08-18.401-3.833-22.823 8.873-6.334 81.974-22.637 104.842-27.659-2.624 12.218-5.123 24.023-7.498 35.229l-21.159-2.211c-.667-.075-1.208.337-1.292.899-.083.562.375 1.087 1 1.162l20.993 2.174c-7.747 36.577-13.995 66.484-17.119 82.487l-51.109-7.683c-4.374-12.967-10.497-30.694-15.37-42.874zm-.916 208.373-5.665-110.782 27.324-37.178a.814.814 0 0 0 .125-.861c-.041-.15-1.957-6.034-4.79-14.429l49.943 7.495c-.459 2.436-.875 4.535-1.167 6.147-7.706 43.248-23.909 137.766-24.908 143.65-11.997 4.122-23.535 8.095-34.365 11.805l-6.581-5.847h.084zm106.132-17.202 15.579 44.823L75.26 585.81l-23.91-19.601-5.33-17.052c19.576-6.708 94.094-32.268 169.903-58.352v.037zM49.56 616.728l-9.372-29.082 1.874-15.103s.167.187.25.262l47.776 39.164-34.78 3.972-5.748.787zM86.63 752.546l-39.82-111.345 9.496-23.236 36.03-4.122 20.952 17.202c1.875 4.797 8.581 21.699 9.997 24.922 1.042 2.324 14.662 20.425 30.324 40.925l-19.077 15.403c-.417.337-.5.862-.25 1.274l13.246 22.262-23.535 15.853s-.25.187-.291.299l-13.496 20.988-23.617-20.388.041-.037zm21.618 23.535-8.455 13.155-9.289 8.17-8.122-9.145 7.497-17.052 18.369 4.835v.037zm-20.618-5.434-6.956 15.778-14.62-16.415L69.97 766l17.66 4.647zm-20.077-5.322-2.916 2.999-4.415-4.947 7.331 1.948zM18.07 747.261l15.328-10.718 20.452 22.973-32.073-8.469a308.972 308.972 0 0 1-3.666-3.786h-.041zm6.54 6.709 31.74 8.395 6.622 7.458-12.746 9.819a2323.06 2323.06 0 0 1-25.617-25.635v-.037z" fill="url(#a)" fill-opacity=".2"/><defs><linearGradient id="a" x1="719.867" y1="-2.662" x2="719.867" y2="672.625" gradientUnits="userSpaceOnUse"><stop stop-color="#007F94" stop-opacity=".2"/><stop offset="1" stop-color="#fff"/></linearGradient></defs></svg>